<svg width="112" height="132" viewBox="0 0 112 132" fill="none" xmlns="http://www.w3.org/2000/svg">
<path fill-rule="evenodd" clip-rule="evenodd" d="M1.01166 119V118.455H112V119H1.01166ZM111.049 117.474L110.509 117.495L110.099 117.526L109.726 116.378C109.656 116.173 109.594 115.985 109.537 115.814C109.468 115.646 109.395 115.471 109.315 115.285H106.739L106.215 116.714L105.961 117.504L105.443 117.474L104.913 117.504L108.072 110.076L108.494 110.108L108.916 110.076L112 117.526L111.459 117.495L111.049 117.474ZM108.072 112.135L107.035 114.63H109.061L108.072 112.135ZM96.4947 117.474L96.0527 117.506V110.171H97.1475L98.728 111.826L100.34 113.505L101.92 115.192V110.171L102.359 110.204L102.803 110.171V117.526L101.86 117.515L99.9948 115.488C99.6208 115.081 99.307 114.746 99.0564 114.484C98.9515 114.376 98.6455 114.061 98.1393 113.537L96.9376 112.317V117.506L96.4947 117.474ZM90.7106 117.515L90.1929 117.474L89.7062 117.495L89.3623 117.526V114.427L88.4646 112.85L86.9851 110.171L87.5476 110.201L87.9809 110.228L88.5462 110.201L88.9785 110.171L89.917 112.081C90.1074 112.483 90.2424 112.749 90.3221 112.883C90.461 113.154 90.5591 113.317 90.6135 113.369C90.8117 113.131 91.0856 112.653 91.4392 111.928L92.2708 110.171L92.81 110.204L93.3384 110.171L92.5447 111.522L91.7511 112.85L91.0176 114.213V117.526L90.7106 117.515ZM84.2893 117.474H78.0779V117.292C78.6821 116.389 79.3495 115.358 80.081 114.198L81.9909 111.074V110.939L80.5347 110.971L78.5315 111.052L78.5646 110.8L78.585 110.606C78.585 110.503 78.5772 110.427 78.5646 110.383L78.5315 110.171H84.301V110.353C84.1038 110.639 83.8347 111.049 83.4957 111.586C83.2237 112.004 83.0478 112.273 82.973 112.397L81.7053 114.494L80.4696 116.596V116.705C80.6804 116.705 81.0369 116.693 81.5382 116.67C82.0365 116.655 82.3853 116.648 82.5786 116.648L84.2893 116.586L84.2466 116.853L84.2359 117.025C84.2359 117.147 84.2437 117.235 84.2583 117.292L84.2893 117.474ZM72.3667 110.076L75.4511 117.526L74.91 117.495L74.4991 117.474L73.9599 117.495L73.549 117.526L73.1769 116.378C73.107 116.173 73.0448 115.985 72.9875 115.814C72.9195 115.646 72.8456 115.471 72.766 115.285H70.1897L69.6661 116.714L69.4125 117.504L68.8928 117.474L68.3643 117.504L71.5225 110.076L71.9451 110.108L72.3667 110.076ZM70.486 114.63H72.5124L71.5225 112.135L70.486 114.63ZM61.3981 117.515L60.8812 117.474L60.3946 117.495L60.0555 117.526V110.171L60.5422 110.201L60.8812 110.228L61.1882 110.216L61.7109 110.171V113.526C62.0276 113.171 62.3656 112.785 62.726 112.37C63.2584 111.755 63.579 111.384 63.6858 111.252C63.8549 111.055 64.1541 110.694 64.5805 110.171L64.9273 110.216L65.1819 110.228L65.4888 110.216L65.7638 110.171V110.26L63.951 112.103L62.9028 113.228L65.8774 117.379V117.526L65.5646 117.515L65.0449 117.474L64.5601 117.495L64.2192 117.526L61.7109 114.118V117.526L61.3981 117.515ZM54.3376 113.973L54.3201 113.794L54.2938 113.555L55.9191 113.633H55.957H55.9939L57.6211 113.555L57.5929 113.794L57.5773 113.973V113.975V113.978L57.5929 114.158L57.6211 114.394L55.9939 114.318L55.957 114.316L55.9191 114.318L54.2938 114.394L54.3201 114.158L54.3376 113.978V113.975V113.973ZM48.0474 117.517L47.5335 117.477L47.0497 117.497L46.7136 117.529V110.171L47.1964 110.201L47.5335 110.228L47.8395 110.216L48.3583 110.171V113.527C48.674 113.172 49.0082 112.785 49.3676 112.371C49.8961 111.756 50.2147 111.385 50.3206 111.253C50.4887 111.056 50.785 110.694 51.2095 110.171L51.5534 110.216L51.8069 110.228L52.112 110.216L52.3849 110.171V110.26L50.5839 112.103L49.5425 113.229L52.4986 117.381V117.529L52.1868 117.517L51.6709 117.477L51.1891 117.497L50.851 117.529L48.3583 114.119V117.529L48.0474 117.517ZM42.9852 110.202L43.4233 110.171V113.988C43.4233 114.791 43.3728 115.367 43.2688 115.716C43.1144 116.302 42.7782 116.763 42.2595 117.099C41.9962 117.288 41.6786 117.426 41.3075 117.517C40.9237 117.619 40.5507 117.669 40.1845 117.669C39.7872 117.669 39.4355 117.64 39.1285 117.583C38.8215 117.524 38.5272 117.428 38.2484 117.292C37.6189 116.992 37.207 116.519 37.0117 115.868C36.9534 115.666 36.9087 115.455 36.8757 115.235L36.8339 114.548V110.171L37.3177 110.201L37.6597 110.228L37.9647 110.216L38.4786 110.171V113.218V113.701V114.507C38.4786 114.684 38.4844 114.821 38.4961 114.914C38.5029 115.006 38.5272 115.137 38.5709 115.307C38.6127 115.573 38.6739 115.789 38.7477 115.952C38.8128 116.116 38.942 116.293 39.1392 116.481C39.4782 116.788 39.8979 116.942 40.3953 116.942C40.9053 116.942 41.3084 116.845 41.6008 116.651C41.8942 116.457 42.1429 116.121 42.3479 115.642C42.3936 115.542 42.4334 115.413 42.4713 115.256C42.4994 115.099 42.5121 114.934 42.5121 114.763L42.5451 113.422V110.171L42.9852 110.202ZM29.8016 117.517L29.2877 117.477L28.8049 117.497L28.4678 117.529V110.171H30.8041C31.3025 110.171 31.6716 110.181 31.9155 110.202C32.1321 110.202 32.3546 110.263 32.5829 110.385C33.2172 110.706 33.5339 111.217 33.5339 111.919C33.5339 112.418 33.3843 112.834 33.0851 113.166C32.7791 113.501 32.3594 113.73 31.8242 113.852C32.102 114.316 32.5013 114.944 33.0229 115.737L33.7661 116.864L34.1916 117.529L33.6194 117.497L33.192 117.477L32.6256 117.497L32.2079 117.529L30.9023 115.275L30.1882 114.087H30.1134V117.529L29.8016 117.517ZM30.2523 113.639H30.3961C31.3559 113.639 31.8358 113.122 31.8358 112.092C31.8358 112.005 31.831 111.917 31.8242 111.828C31.8164 111.739 31.8028 111.648 31.7814 111.557C31.7173 111.227 31.5502 110.997 31.2772 110.866C31.0946 110.789 30.8119 110.752 30.4292 110.752H30.1134V113.628L30.2523 113.639ZM17.8654 110.171L18.1286 110.216L18.3113 110.228C18.4356 110.228 18.526 110.218 18.5794 110.201L18.7766 110.171C18.899 110.442 19.0107 110.686 19.1156 110.896C19.2196 111.107 19.3769 111.423 19.5868 111.847L20.4349 113.527L21.3024 115.213L22.1242 113.639L22.9917 111.952L23.8602 110.171L24.1225 110.216L24.3226 110.228L24.5528 110.201L24.7938 110.171C24.8511 110.735 24.9123 111.274 24.9803 111.783C25.0366 112.295 25.0813 112.662 25.1105 112.882L25.4106 115.307C25.4378 115.565 25.4748 115.842 25.5165 116.135C25.5602 116.437 25.6409 116.899 25.7584 117.529L25.2639 117.497L24.8472 117.477L24.343 117.497L23.9583 117.529C23.9583 116.858 23.901 116.066 23.7912 115.151L23.4852 112.532L22.6488 114.183L21.8386 115.816L21.0459 117.477L20.7826 117.455L20.6321 117.477L19.8821 115.942L19.0729 114.323L18.2258 112.648L17.9955 114.418L17.8178 116.081L17.7643 117.529L17.4593 117.487L17.2485 117.477L16.9755 117.487L16.7453 117.529L17.1251 115.266L17.4787 112.841L17.8654 110.171ZM11.6588 110.076L14.7218 117.529L14.1855 117.497L13.7785 117.477L13.2422 117.497L12.8342 117.529L12.4631 116.38C12.3942 116.175 12.332 115.987 12.2756 115.816C12.2076 115.647 12.1338 115.473 12.0561 115.287H9.49534L8.97562 116.716L8.72304 117.507L8.2072 117.477L7.68164 117.507L10.8204 110.076L11.2401 110.108L11.6588 110.076ZM9.79066 114.632H11.8025L10.8204 112.135L9.79066 114.632ZM1.01166 108.71H112V109.254H1.01166V108.71ZM88.5365 49.891V49.3632L106.741 48.3492V49.891V51.4328L88.5365 50.4188V49.891ZM88.3558 46.5353L88.2995 46.0104L106.296 43.1437L106.462 44.6758L106.626 46.2089L88.4132 47.0602L88.3558 46.5353ZM87.8167 43.2164L87.705 42.6992L105.297 38.0109L105.625 39.5188L105.953 41.0257L87.9294 43.7326L87.8167 43.2164ZM86.9268 39.9692L86.7597 39.4665L103.753 33.0089L104.241 34.4751L104.729 35.9404L87.0939 40.4708L86.9268 39.9692ZM85.6941 36.8323L85.4735 36.35L101.683 28.1918L102.325 29.5989L102.966 31.0071L85.9146 37.3136L85.6941 36.8323ZM84.132 33.8379L83.8609 33.3798L99.1088 23.6119L99.8986 24.9455L100.688 26.2791L84.402 34.295L84.132 33.8379ZM82.258 31.0196L81.9404 30.5916L96.0585 19.3197L96.9872 20.5661L97.914 21.8125L82.5767 31.4458L82.258 31.0196ZM80.0936 28.4068L79.7313 28.0136L92.5671 15.3626L93.6231 16.5083L94.678 17.653L80.455 28.799L80.0936 28.4068ZM77.2589 74.1043L77.6611 73.7508L78.0633 73.3973L80.9281 76.17H78.9561L77.2589 74.1043ZM79.7323 71.7674L80.0936 71.3742L80.456 70.982L87.0774 76.17H84.199L79.7323 71.7674ZM81.9413 69.1894L82.259 68.7633L82.5767 68.3352L95.0521 76.17H90.6844L81.9413 69.1894ZM99.1098 76.17L83.8629 66.4012L84.1329 65.9451L84.403 65.486L100.688 73.5019L99.8986 74.8355L99.1098 76.17ZM101.684 71.5912L85.4745 63.4319L85.6941 62.9496L85.9156 62.4674L102.967 68.7759L102.326 70.183L101.684 71.5912ZM103.753 66.7741L86.7607 60.3154L86.9278 59.8118L87.0949 59.3102L104.729 63.8416L104.242 65.3078L103.753 66.7741ZM88.4132 52.7218L106.626 53.574L106.462 55.1051L106.298 56.6392L88.2995 53.7726L88.3558 53.2467L88.4132 52.7218ZM105.297 61.771L87.7059 57.0827L87.8186 56.5656L87.9303 56.0504L105.953 58.7562L105.626 60.2631L105.297 61.771ZM77.6611 26.0302L77.2589 25.6767L88.6696 11.7842L89.8422 12.8156L91.0147 13.846L78.0623 26.3846L77.6611 26.0302ZM74.9867 23.9151L74.5496 23.6051L84.4117 8.6241L85.6882 9.52864L86.9647 10.4341L75.4239 24.2259L74.9867 23.9151ZM72.1015 22.0856L71.6333 21.8213L79.8372 5.91533L81.204 6.68525L82.5708 7.45517L72.5698 22.3491L72.1015 22.0856ZM75.4239 75.5541L75.9397 76.17H74.5564L74.9877 75.8659L75.4239 75.5541ZM70.9999 60.0985L72.459 60.7638V60.7687L73.4771 61.2345C74.2037 61.5657 74.8031 62.4131 74.8031 63.1249V64.319V69.3192C73.6549 70.5695 72.3823 71.7084 70.9999 72.7126V60.0985ZM69.0366 20.5603L68.5421 20.3453L74.9994 3.68788L76.442 4.3135L77.8826 4.94106L69.5301 20.7744L69.0366 20.5603ZM67.1141 16.3175C66.8226 16.1374 66.5186 16.0066 66.198 15.8933L69.9497 1.96693L71.4506 2.44245L72.9506 2.91893L67.5017 16.5974C67.3705 16.4831 67.2375 16.3853 67.1141 16.3175ZM65.8026 8.65219C65.3354 8.0808 64.6689 7.47551 63.7762 6.91671L64.7418 0.770891L66.2864 1.09145L67.8291 1.41201L65.8065 8.65509L65.8026 8.65219ZM60.2139 4.75609C59.8836 4.5624 59.5581 4.37161 59.2366 4.18276L59.4367 0.114278L61.0066 0.275041L62.5745 0.435805L61.707 5.63545C61.2077 5.33813 60.7074 5.04469 60.2139 4.75609ZM55.0224 77.6634C54.6931 77.6547 54.3647 77.6402 54.0383 77.6198V36.1215L55.6801 35.3709L55.0224 77.6634ZM55.0351 1.16021C54.8077 0.872579 54.4745 0.711815 54.1297 0.689541L54.0898 0H55.6665H57.2451L57.079 2.84823C56.1765 2.24875 55.4499 1.68221 55.0351 1.16021ZM51.8739 77.399V37.1199L53.5167 36.3704L52.8813 77.5249C52.5433 77.4891 52.2081 77.4465 51.8739 77.399ZM50.7539 77.2111C50.408 77.1453 50.0641 77.0726 49.7222 76.9942V38.1494L51.363 37.4008L50.7539 77.2111ZM48.7595 0.434837L50.3284 0.273105L51.8982 0.113309L52.4549 11.5082L50.3769 10.1242L48.7595 0.434837ZM49.2365 38.5019L48.6565 76.7259C48.3 76.6271 47.9464 76.5196 47.5957 76.4063V43.7326V41.4005C47.5957 40.3885 48.2864 39.2225 49.2258 38.5078L49.2365 38.5019ZM46.9973 9.37465L46.9963 9.37562L46.9924 9.3795C46.9749 9.40468 46.9574 9.42792 46.9069 9.49959C46.8214 9.61774 46.7262 9.75332 46.6446 9.886C46.4688 10.1775 46.2978 10.4913 46.1346 10.8254L43.5049 1.41104L45.0485 1.09048L46.5912 0.768954L47.8609 8.83716C47.5277 8.88365 47.2149 9.06184 47.0099 9.35432L46.9973 9.37465ZM44.3986 18.0191L38.3834 2.91796L39.8843 2.44148L41.3842 1.965L44.8105 14.6857C44.5715 15.7703 44.4229 16.9044 44.3986 18.0191ZM42.2974 20.5603L41.8039 20.7744L33.4523 4.94106L34.8939 4.3135L36.3346 3.68788L42.7928 20.3453L42.2974 20.5603ZM39.2334 22.0856L38.7652 22.3491L28.7631 7.45517L30.1299 6.68428L31.4968 5.91436L39.7017 21.8213L39.2334 22.0856ZM35.9101 75.5551L36.3463 75.8659L36.7776 76.17H35.3952L35.9101 75.5551ZM40.4409 60.7687V72.7892C39.0605 71.7945 37.7869 70.6731 36.6377 69.4354V64.9892V63.7951C36.6377 63.0833 37.2361 62.2359 37.9637 61.9037L38.9818 61.4389V61.435L40.4409 60.7687ZM36.3472 23.9151L35.9101 24.2259L24.3702 10.4341L25.6467 9.52864L26.9232 8.6241L36.7854 23.6051L36.3472 23.9151ZM33.6738 26.0302L33.2726 26.3846L20.3193 13.846L21.4918 12.8156L22.6643 11.7842L34.076 25.6776L33.6738 26.0302ZM31.2413 28.4068L30.8799 28.7999L16.6559 17.653L17.7119 16.5083L18.7669 15.3626L31.6027 28.0136L31.2413 28.4068ZM29.0769 31.0196L28.7583 31.4458L13.42 21.8125L14.3477 20.5661L15.2745 19.3197L29.3946 30.5916L29.0769 31.0196ZM27.202 33.8379L26.9329 34.295L10.6475 26.281L11.4363 24.9455L12.2242 23.6119L27.473 33.3798L27.202 33.8379ZM25.6399 36.8323L25.4203 37.3146L8.36749 31.0071L9.00865 29.5989L9.65078 28.1918L25.8594 36.35L25.6399 36.8323ZM24.4071 39.9692L24.24 40.4718L6.60625 35.9394L7.09294 34.4751L7.58061 33.0089L24.5742 39.4665L24.4071 39.9692ZM23.5163 43.2164L23.4046 43.7326L5.38125 41.0248L5.7096 39.5178L6.03795 38.0109L23.63 42.6983L23.5163 43.2164ZM22.9781 46.5353L22.9227 47.0611L4.70803 46.2089L4.87221 44.6758L5.03735 43.1437L23.0354 46.0094L22.9781 46.5353ZM4.5934 49.891L4.59243 48.3492L22.7984 49.3632V49.891V50.4207L4.5934 51.4328V49.891ZM4.87221 55.1051L4.70706 53.574L22.9218 52.7218L22.9781 53.2467L23.0354 53.7726L5.03735 56.6392L4.87221 55.1051ZM5.70863 60.2631L5.38028 58.7572L23.4036 56.0504L23.5163 56.5656L23.63 57.0837L6.03698 61.7701L5.70863 60.2631ZM7.09197 65.3078L6.6043 63.8416L24.2391 59.3102L24.4062 59.8118L24.5742 60.3154L7.57964 66.7741L7.09197 65.3078ZM9.00768 70.183L8.36652 68.7759L25.4194 62.4674L25.6389 62.9496L25.8594 63.4319L9.64883 71.5912L9.00768 70.183ZM11.4353 74.8355L10.6465 73.5019L26.931 65.486L27.201 65.9451L27.4721 66.4012L12.2242 76.17L11.4353 74.8355ZM16.2819 76.17L28.7583 68.3352L29.0759 68.7633L29.3946 69.1894L20.6486 76.17H16.2819ZM33.6738 73.7508L34.076 74.1043L32.3779 76.17H30.4068L33.2716 73.3973L33.6738 73.7508ZM24.2585 76.17L30.8789 70.982L31.2413 71.3742L31.6027 71.7674L27.135 76.17H24.2585ZM3.19645 112.716L4.81295 113.595C5.38999 114.039 5.67851 114.608 5.67851 115.307C5.67851 115.997 5.40748 116.56 4.86638 117.005C4.32236 117.448 3.62389 117.669 2.76901 117.669C2.43192 117.669 2.11814 117.63 1.82476 117.549C1.51098 117.487 1.23509 117.373 1 117.208L1.1972 116.481L1.31572 115.848H1.52458C1.60716 116.212 1.78202 116.498 2.05208 116.71C2.32312 116.921 2.65244 117.025 3.04199 117.025C3.39171 117.025 3.69481 116.926 3.95321 116.728C4.20385 116.533 4.32916 116.259 4.32916 115.911C4.32916 115.46 4.04647 115.081 3.48109 114.774L1.91122 113.956C1.33709 113.535 1.05246 112.961 1.05246 112.233C1.05246 111.587 1.26521 111.057 1.6907 110.642C2.15894 110.199 2.7933 109.977 3.59086 109.977C3.95127 109.977 4.29711 110.03 4.62643 110.14C4.94895 110.247 5.18307 110.367 5.32976 110.495L5.14033 111.009L4.97421 111.557H4.81295C4.70123 111.265 4.53997 111.036 4.32722 110.869C4.11447 110.703 3.85412 110.621 3.54715 110.621C3.15371 110.621 2.85159 110.716 2.64467 110.903C2.44163 111.096 2.33866 111.352 2.33866 111.675C2.33866 112.054 2.62427 112.402 3.19645 112.716Z" fill="#AE9675"/>
<path fill-rule="evenodd" clip-rule="evenodd" d="M108.785 131.802C107.973 130.916 107.169 130.025 106.367 129.132C105.527 128.209 104.726 127.352 103.963 126.56L102.404 124.95V131.815L101.832 131.745L101.259 131.787V122.125H102.675C103.305 122.802 103.987 123.528 104.722 124.3C105.132 124.724 105.831 125.464 106.818 126.518C107.804 127.572 108.484 128.312 108.856 128.736V122.125L109.428 122.168L110 122.125V131.815L108.785 131.802ZM98.0688 130.487C97.0206 131.495 95.6408 132 93.9343 132C92.3228 132 91.038 131.557 90.0791 130.671C89.1201 129.786 88.6411 128.548 88.6411 126.956C88.6411 125.496 89.1318 124.295 90.115 123.353C91.1447 122.365 92.5322 121.87 94.2785 121.87C96.1276 121.87 97.5209 122.434 98.4557 123.565C99.1994 124.47 99.5717 125.58 99.5717 126.899C99.5717 128.331 99.0704 129.527 98.0688 130.487ZM96.5096 123.989C95.9657 123.142 95.1938 122.718 94.1922 122.718C93.1712 122.718 92.3945 123.094 91.8603 123.848C91.2979 124.639 91.0157 125.812 91.0157 127.366C91.0157 128.401 91.2446 129.264 91.7022 129.951C92.2365 130.751 93.0054 131.152 94.006 131.152C95.0455 131.152 95.8512 130.695 96.4233 129.782C96.9392 128.953 97.1961 127.902 97.1961 126.631C97.1961 125.585 96.9673 124.705 96.5096 123.989ZM74.9694 96.8089C75.3611 97.0991 75.7509 97.4176 75.94 97.5662C78.6171 100.102 77.8046 103.747 75.143 104.888C75.3505 102.524 72.5124 100.485 69.4542 98.7505C66.3979 97.0942 59.118 95.2483 59.0618 88.7061C58.99 80.3023 70.4296 78.903 70.706 85.8175C70.8291 88.8966 65.9209 89.6471 64.4946 86.6159C62.0715 88.0582 64.2958 93.2422 69.1032 92.7585C72.3408 92.4331 75.3359 89.6227 75.4125 85.7061C75.4397 84.3557 75.141 83.1665 74.601 82.1433C78.1769 83.3218 83.7649 81.3518 84.9187 78.8278H97.2136C97.1273 78.945 96.5707 79.8665 96.4844 79.9828C91.0206 87.3488 83.5952 93.208 74.9694 96.8089ZM45.55 49.2554V76.5637C44.2265 76.0272 42.9573 75.3832 41.7549 74.6445V53.514V52.3101C41.7549 51.5909 42.3522 50.7368 43.0785 50.4016L44.0946 49.9326V49.9277L45.55 49.2554ZM66.5725 49.2564L67.5877 49.7254C68.3139 50.0606 68.9112 50.9147 68.9112 51.6339V52.8377V74.579C67.7098 75.3256 66.4406 75.9764 65.1151 76.5207V48.5792L66.5725 49.2525V49.2564ZM57.6102 80.615C56.6251 81.5991 55.7553 82.8801 55.2793 84.4143C54.8041 82.8801 53.9344 81.5991 52.9492 80.615C37.1056 79.4375 24.6159 66.3658 24.6159 50.4202C24.6159 37.4696 32.8538 26.4178 44.4359 22.0908C44.499 22.3801 44.5668 22.6664 44.6415 22.9478C44.9848 24.2435 45.4531 25.4543 45.9825 26.4539C42.0865 27.8278 38.593 30.0392 35.7258 32.871C30.7206 37.8136 27.6246 44.6402 27.6246 52.1811C27.6246 59.721 30.7206 66.5486 35.7258 71.4911C39.8089 75.522 45.1632 78.3001 51.1438 79.1854L51.2068 79.1952L51.3435 79.2148L51.4735 79.2323L51.68 79.2597L51.8264 79.2783L52.0465 79.3046L52.1677 79.3183C52.2482 79.3281 52.3277 79.3369 52.4082 79.3447L52.5042 79.3535C52.5934 79.3623 52.6826 79.3711 52.7718 79.3799L52.8406 79.3848C52.9318 79.3926 53.0229 79.4004 53.1141 79.4072L53.1907 79.4131C53.2828 79.42 53.3759 79.4268 53.468 79.4317L53.5446 79.4366C53.6425 79.4434 53.7405 79.4483 53.8394 79.4532L53.8568 79.4551L53.8704 79.4561C53.9809 79.461 54.0915 79.4649 54.201 79.4688L54.2107 79.4708H54.2301C54.3397 79.4747 54.4483 79.4776 54.5578 79.4805H54.5656H54.5695C54.6839 79.4835 54.7983 79.4864 54.9127 79.4874H54.9292C55.0465 79.4893 55.1629 79.4903 55.2793 79.4903C55.3975 79.4903 55.5139 79.4893 55.6303 79.4874H55.6458C55.7621 79.4864 55.8765 79.4835 55.9919 79.4805H55.9939H56.0026C56.1112 79.4776 56.2208 79.4747 56.3303 79.4708H56.3487L56.3565 79.4688C56.468 79.4649 56.5785 79.46 56.6901 79.4561L56.7027 79.4551L56.7211 79.4532C56.82 79.4483 56.9189 79.4434 57.0178 79.4366L57.0895 79.4327C57.1846 79.4268 57.2786 79.42 57.3717 79.4131L57.4425 79.4072C57.5375 79.4004 57.6306 79.3926 57.7246 79.3848L57.7838 79.3799C57.8749 79.3711 57.9671 79.3623 58.0582 79.3535L58.1445 79.3447C58.2298 79.3369 58.3142 79.3271 58.3985 79.3174L58.5091 79.3056L58.7389 79.2773L58.8727 79.2607L59.0967 79.2314L59.2101 79.2157L59.4108 79.1864L59.4166 79.1854C65.3963 78.3001 70.7506 75.522 74.8346 71.4911C79.8398 66.5486 82.9358 59.721 82.9358 52.1811C82.9358 44.6402 79.8398 37.8136 74.8346 32.871C72.3475 30.4154 69.3902 28.4259 66.107 27.0451C66.3165 26.5379 66.3873 26.0679 66.3378 25.6927C66.3233 25.5784 66.2922 25.4679 66.2476 25.3663L66.2505 25.3653L66.1565 25.1513C66.1429 25.1191 66.1274 25.0868 66.11 25.0556C65.6998 24.1185 65.3013 23.1745 65.118 21.7332C77.2267 25.7826 85.9436 37.0973 85.9436 50.4202C85.9436 66.3658 73.4549 79.4375 57.6102 80.615ZM63.4425 41.5376V43.6454V77.1412C61.0495 77.9337 58.4994 78.3871 55.8504 78.4447V35.7713L59.6464 37.5244L61.3452 38.309C62.5146 38.9579 63.4425 40.3533 63.4425 41.5376ZM66.0954 19.4153C65.533 19.7798 64.6943 19.94 63.7761 20.2557C63.8246 23.0494 64.4781 24.3999 65.1093 25.849C65.1966 26.5047 64.4587 27.8825 62.5262 29.0434C59.2208 31.2255 55.1105 33.1857 53.6687 35.0257C52.9958 33.2101 54.6083 31.9183 54.7896 30.817C53.85 27.7018 53.6319 25.7054 54.042 22.5276L47.6667 26.8145C47.5882 26.6972 47.4234 26.4735 47.3468 26.3454C46.1939 24.4233 45.2882 21.3696 45.2718 18.5221V18.5124V18.5036C45.2882 15.6561 46.1939 12.6024 47.3468 10.6793C47.4234 10.5513 47.5882 10.3275 47.6667 10.2103L54.042 14.4971C53.6319 11.3194 53.85 9.32396 54.7896 6.20773C54.6083 5.10743 52.9958 3.8156 53.6687 2C55.1105 3.83905 59.2208 5.79927 62.5262 7.98229C64.4587 9.14318 65.1966 10.52 65.1093 11.1757C64.4781 12.6249 63.8246 13.9753 63.7761 16.7691C64.6943 17.0857 65.533 17.245 66.0954 17.6104C66.3233 17.7375 66.6937 18.1704 66.8255 18.5036L66.8226 18.5124L66.8255 18.5221C66.6937 18.8544 66.3233 19.2873 66.0954 19.4153ZM55.4131 28.3506C56.1732 27.9128 57.5191 27.1116 58.4044 26.62C58.4984 26.8262 58.5527 27.3324 58.3345 27.6119C57.7246 28.4776 56.5621 29.5985 56.2188 30.1701C56.0627 30.5082 55.8736 31.2372 55.8465 31.7297C57.5142 30.6333 59.5582 29.4968 61.3423 28.3614C61.7263 28.1317 62.4244 27.7369 62.4894 27.2142C62.3061 26.7422 62.2654 26.6347 62.2082 26.0542C62.8753 25.8461 63.2564 25.7728 63.5172 25.2832C63.2564 24.7937 62.8753 24.7194 62.2082 24.5113C62.2654 23.9328 62.3061 23.8253 62.4894 23.3523C62.4244 22.8296 61.7263 22.4348 61.3423 22.2051C59.5582 21.0697 57.5142 19.9342 55.8465 18.8368C55.8736 19.3303 56.0627 20.0583 56.2188 20.3954C56.5621 20.967 57.7246 22.0889 58.3345 22.9556C58.5527 23.2331 58.4984 23.7413 58.4044 23.9465C57.5191 23.454 56.1732 22.6546 55.4131 22.2169C55.1968 23.1706 55.064 24.1966 55.0737 25.2832C55.064 26.3689 55.1968 27.3969 55.4131 28.3506ZM55.0155 18.5153L55.0145 18.5124L55.0155 18.5094L55.0116 18.5036L55.0155 18.4958C54.7547 17.9906 54.3717 17.9143 53.7056 17.7003C53.7443 17.0994 53.788 16.8287 53.9867 16.3401C53.9227 15.7987 53.2227 15.3913 52.8406 15.1519L48.0556 11.9193C47.9053 12.4431 47.9188 12.8926 48.0885 13.2688C48.4308 13.859 49.222 15.1939 49.8319 16.089C50.1936 16.5746 49.9706 17.0339 49.9007 17.114C49.0164 16.6049 47.6454 15.7772 46.8833 15.3258C46.6632 16.2013 46.508 17.3241 46.5119 18.5124C46.508 19.7016 46.6632 20.8234 46.8833 21.6999C47.6454 21.2475 49.0164 20.4188 49.9007 19.9117C49.9706 19.9918 50.1936 20.4511 49.8319 20.9358C49.222 21.8319 48.4308 23.1667 48.0885 23.7559C47.9188 24.1321 47.9053 24.5826 48.0556 25.1054L52.8406 21.8719C53.2227 21.6335 53.9227 21.227 53.9867 20.6866C53.788 20.197 53.7443 19.9254 53.7056 19.3244C54.3717 19.1114 54.7547 19.0352 55.0155 18.53L55.0116 18.5221L55.0155 18.5153ZM62.2082 10.9656C62.2654 10.3852 62.3061 10.2787 62.4894 9.80571C62.4244 9.28194 61.7263 8.88814 61.3423 8.6585C59.5582 7.52302 57.5142 6.38753 55.8465 5.28919C55.8736 5.78266 56.0627 6.51164 56.2188 6.84974C56.5621 7.42041 57.7246 8.54221 58.3345 9.40897C58.5527 9.68649 58.4984 10.1936 58.4044 10.3998C57.5191 9.90733 56.1732 9.10702 55.4131 8.66925C55.1968 9.62395 55.064 10.65 55.0737 11.7366C55.064 12.8213 55.1968 13.8493 55.4131 14.803C56.1732 14.3652 57.5191 13.5659 58.4044 13.0734C58.4984 13.2796 58.5527 13.7858 58.3345 14.0643C57.7246 14.931 56.5621 16.0528 56.2188 16.6235C56.0627 16.9616 55.8736 17.6906 55.8465 18.1831C57.5142 17.0857 59.5582 15.9502 61.3423 14.8147C61.7263 14.5841 62.4244 14.1893 62.4894 13.6675C62.3061 13.1946 62.2654 13.0881 62.2082 12.5066C62.8753 12.2995 63.2564 12.2262 63.5172 11.7366C63.2564 11.247 62.8753 11.1718 62.2082 10.9656ZM63.587 18.5036C63.4774 18.1235 63.0042 17.8928 62.2305 17.7228C62.3701 17.3915 62.6726 17.074 62.5941 15.7391L61.8184 16.3L58.1716 18.5036L58.319 18.5124L58.1716 18.5221L61.8184 20.7257L62.5941 21.2866C62.6726 19.9518 62.3701 19.6322 62.2305 19.3029C63.0042 19.1319 63.4774 18.9023 63.587 18.5221L63.5821 18.5124L63.587 18.5036ZM35.9585 82.1433C35.4194 83.1665 35.1198 84.3557 35.1469 85.7061C35.2245 89.6227 38.2187 92.4331 41.4553 92.7585C46.2647 93.2422 48.488 88.0582 46.0649 86.6159C44.6386 89.6471 39.7313 88.8966 39.8545 85.8175C40.1298 78.903 51.5695 80.3023 51.4987 88.7061C51.4424 95.2483 44.1615 97.0942 41.1053 98.7505H41.1043C38.0481 100.485 35.208 102.524 35.4165 104.888C32.7559 103.747 31.9423 100.102 34.6204 97.5662C34.8085 97.4176 35.1983 97.0991 35.5901 96.8089C26.9643 93.208 19.5379 87.3488 14.0751 79.9828C13.9888 79.8665 13.4322 78.945 13.3469 78.8278H25.6407C26.7956 81.3518 32.3835 83.3218 35.9585 82.1433ZM19.4846 123.565C20.2293 124.47 20.6006 125.58 20.6006 126.899C20.6006 128.331 20.1003 129.527 19.0987 130.487C18.0496 131.495 16.6717 132 14.9642 132C13.3527 132 12.067 131.557 11.109 130.671C10.15 129.786 9.67103 128.548 9.67103 126.956C9.67103 125.496 10.1626 124.295 11.1449 123.353C12.1746 122.365 13.5621 121.87 15.3075 121.87C17.1585 121.87 18.5499 122.434 19.4846 123.565ZM12.8902 123.848C12.3268 124.639 12.0466 125.812 12.0466 127.366C12.0466 128.401 12.2754 129.264 12.7331 129.951C13.2674 130.751 14.0343 131.152 15.036 131.152C16.0764 131.152 16.8821 130.695 17.4542 129.782C17.9691 128.953 18.227 127.902 18.227 126.631C18.227 125.585 17.9982 124.705 17.5395 123.989C16.9965 123.142 16.2238 122.718 15.2221 122.718C14.2011 122.718 13.4244 123.094 12.8902 123.848ZM8.2835 124.017H8.08279C7.81614 123.63 7.46805 123.319 7.0385 123.078C6.60993 122.838 6.16681 122.718 5.70915 122.718C4.60184 122.718 3.7476 123.179 3.14837 124.102C2.63253 124.892 2.37558 125.873 2.37558 127.041C2.37558 128.284 2.67131 129.28 3.26279 130.028C3.85426 130.777 4.69201 131.152 5.77993 131.152C6.2279 131.152 6.68362 131.055 7.14613 130.862C7.60767 130.669 8.00716 130.411 8.34071 130.092L8.52591 130.176L8.21272 131.391C7.80257 131.598 7.35363 131.752 6.86688 131.85C6.3811 131.949 5.88465 132 5.37948 132C3.8145 132 2.53751 131.57 1.54558 130.713C0.514871 129.829 0 128.67 0 127.238C0 125.476 0.558504 124.121 1.67454 123.17C2.69459 122.303 4.03364 121.87 5.69363 121.87C6.19978 121.87 6.70689 121.928 7.21788 122.046C7.72791 122.164 8.19333 122.337 8.6122 122.562C8.56469 122.751 8.51039 122.98 8.44737 123.247C8.38628 123.516 8.33101 123.772 8.2835 124.017ZM25.7513 124.3C26.1614 124.724 26.8596 125.464 27.8466 126.518C28.8347 127.572 29.5144 128.312 29.8858 128.736V122.125L30.4578 122.168L31.0299 122.125V131.815L29.814 131.802C29.0034 130.916 28.1976 130.025 27.3967 129.132C26.557 128.209 25.7571 127.352 24.993 126.56L23.4329 124.95V131.815L22.8618 131.745L22.2897 131.787V122.125H23.7054C24.3356 122.802 25.0163 123.528 25.7513 124.3ZM33.2339 129.597H33.5044C33.6101 130.088 33.8389 130.468 34.1919 130.741C34.5448 131.015 34.9743 131.152 35.4795 131.152C35.9566 131.152 36.3551 131.024 36.6741 130.77C36.9931 130.516 37.1531 130.153 37.1531 129.682C37.1531 129.079 36.7866 128.58 36.0516 128.184C35.3651 127.826 34.6835 127.47 34.0067 127.112C33.262 126.556 32.8897 125.797 32.8897 124.836C32.8897 123.98 33.167 123.283 33.7197 122.746C34.3208 122.162 35.146 121.87 36.1951 121.87C36.6722 121.87 37.1221 121.941 37.5468 122.082C37.9715 122.224 38.274 122.379 38.4553 122.548C38.3496 122.821 38.2691 123.047 38.2119 123.226C38.1169 123.547 38.0442 123.787 37.9976 123.947H37.7824C37.6398 123.56 37.4294 123.259 37.1531 123.042C36.8768 122.825 36.5384 122.718 36.1379 122.718C35.6036 122.718 35.208 122.843 34.9511 123.092C34.6932 123.342 34.5642 123.678 34.5642 124.102C34.5642 124.612 34.9356 125.068 35.6802 125.472C37.0348 126.207 37.7349 126.593 37.7824 126.631C38.5368 127.215 38.913 127.968 38.913 128.891C38.913 129.795 38.56 130.539 37.8551 131.123C37.1492 131.707 36.2378 132 35.1217 132C34.7029 132 34.2946 131.949 33.899 131.85C33.5025 131.752 33.1427 131.598 32.8189 131.391C32.9333 130.995 33.0186 130.675 33.0758 130.431C33.134 130.186 33.1854 129.908 33.2339 129.597ZM39.6567 122.125H47.0248C47.0055 122.256 46.989 122.372 46.9744 122.471C46.9599 122.569 46.9521 122.651 46.9521 122.718C46.9521 122.859 46.9628 122.98 46.9822 123.078C47.0016 123.177 47.0151 123.259 47.0248 123.326C46.3277 123.24 45.9088 123.193 45.7653 123.184C45.3358 123.146 44.9023 123.127 44.4641 123.127V131.815C44.3012 131.815 44.1683 131.811 44.0626 131.802C43.6525 131.764 43.4295 131.745 43.3907 131.745C43.2288 131.745 43.0193 131.757 42.7614 131.779C42.5035 131.804 42.3561 131.815 42.3183 131.815V123.127C41.8131 123.127 41.3719 123.144 40.9947 123.177C40.6185 123.209 40.1715 123.259 39.6567 123.326C39.6761 123.193 39.6925 123.078 39.7071 122.98C39.7216 122.88 39.7294 122.793 39.7294 122.718C39.7294 122.586 39.7197 122.471 39.7003 122.372C39.6809 122.272 39.6664 122.19 39.6567 122.125ZM55.2793 92.3578C56.6988 96.0134 59.5107 98.4271 63.107 100.145C63.1128 100.149 63.0828 100.164 63.0663 100.167C60.5269 100.563 57.9273 100.778 55.2793 100.794C52.6331 100.778 50.0316 100.563 47.4941 100.167C47.4767 100.164 47.4476 100.149 47.4524 100.145C51.0488 98.4271 53.8617 96.0134 55.2793 92.3578ZM52.8329 122.16C53.1383 122.183 53.4292 122.265 53.7056 122.407C54.5356 122.84 54.9496 123.513 54.9496 124.427C54.9496 125.095 54.7498 125.651 54.3504 126.094C53.9489 126.537 53.405 126.829 52.7185 126.97C53.0908 127.611 53.6096 128.439 54.2776 129.456C54.7266 130.135 55.0504 130.628 55.2511 130.939L55.8087 131.815C55.6273 131.815 55.382 131.804 55.0718 131.779C54.7624 131.757 54.5734 131.745 54.5065 131.745C54.3251 131.745 54.0798 131.757 53.7705 131.779C53.4593 131.804 53.276 131.815 53.2188 131.815L51.5161 128.849L50.5872 127.281H50.4864V131.815C50.3245 131.815 50.1907 131.811 50.0859 131.802C49.6758 131.764 49.4518 131.745 49.414 131.745C49.2511 131.745 49.0417 131.757 48.7837 131.779C48.5268 131.804 48.3794 131.815 48.3406 131.815V122.125H51.3882C52.0465 122.125 52.5275 122.136 52.8329 122.16ZM50.4864 122.887V126.673C50.5533 126.682 50.6154 126.688 50.6726 126.688C50.7298 126.688 50.7918 126.688 50.8587 126.688C52.1076 126.688 52.732 126.01 52.732 124.653C52.732 124.427 52.7088 124.191 52.6613 123.947C52.5759 123.503 52.3558 123.202 52.0029 123.042C51.7644 122.939 51.3969 122.887 50.9014 122.887H50.4864ZM57.4968 122.195C57.6587 122.195 57.7925 122.19 57.8972 122.181C58.3074 122.143 58.5314 122.125 58.5692 122.125V126.136V126.772C58.5692 127.131 58.5711 127.483 58.5769 127.831C58.5808 128.18 58.6177 128.53 58.6836 128.883C58.7505 129.238 58.829 129.524 58.9202 129.746C59.0104 129.966 59.1801 130.196 59.4283 130.431C59.8665 130.836 60.4105 131.039 61.0592 131.039C61.736 131.039 62.2654 130.91 62.6474 130.656C63.0285 130.402 63.3475 129.961 63.6054 129.329C63.7198 129.057 63.7906 128.67 63.8207 128.17C63.8478 127.671 63.8633 127.083 63.8633 126.405V122.125L64.4354 122.168L65.0075 122.125V127.153C65.0075 128.189 64.9406 128.947 64.8077 129.428C64.5973 130.191 64.1591 130.798 63.491 131.251C63.1284 131.514 62.7143 131.704 62.246 131.822C61.7786 131.939 61.2929 132 60.7867 132C59.7948 132 58.9561 131.834 58.2696 131.505C57.4396 131.099 56.9005 130.474 56.6532 129.625C56.5766 129.371 56.5194 129.091 56.4816 128.785C56.4428 128.48 56.4244 128.18 56.4244 127.888V122.125C56.5863 122.125 56.7957 122.136 57.0527 122.16C57.3106 122.183 57.459 122.195 57.4968 122.195ZM68.183 123.17C69.204 122.303 70.5441 121.87 72.204 121.87C72.7092 121.87 73.2173 121.928 73.7273 122.046C74.2374 122.164 74.7018 122.337 75.1216 122.562C75.0741 122.751 75.0189 122.98 74.9578 123.247C74.8957 123.516 74.8405 123.772 74.7929 124.017H74.5932C74.3256 123.63 73.9765 123.319 73.5489 123.078C73.1194 122.838 72.6753 122.718 72.2176 122.718C71.1123 122.718 70.258 123.179 69.6568 124.102C69.141 124.892 68.885 125.873 68.885 127.041C68.885 128.284 69.1808 129.28 69.7713 130.028C70.3627 130.777 71.2024 131.152 72.2894 131.152C72.7383 131.152 73.1931 131.055 73.6556 130.862C74.1181 130.669 74.5166 130.411 74.8502 130.092L75.0363 130.176L74.7212 131.391C74.311 131.598 73.8621 131.752 73.3773 131.85C72.8905 131.949 72.3941 132 71.8889 132C70.3239 132 69.046 131.57 68.055 130.713C67.0243 129.829 66.5094 128.67 66.5094 127.238C66.5094 125.476 67.067 124.121 68.183 123.17ZM75.9662 122.125H83.3344C83.315 122.256 83.2985 122.372 83.283 122.471C83.2694 122.569 83.2616 122.651 83.2616 122.718C83.2616 122.859 83.2713 122.98 83.2907 123.078C83.3101 123.177 83.3247 123.259 83.3344 123.326C82.6382 123.24 82.2183 123.193 82.0748 123.184C81.6453 123.146 81.2119 123.127 80.7736 123.127V131.815C80.6117 131.815 80.4779 131.811 80.3731 131.802C79.962 131.764 79.738 131.745 79.6992 131.745C79.5373 131.745 79.3279 131.757 79.07 131.779C78.812 131.804 78.6656 131.815 78.6268 131.815V123.127C78.1217 123.127 77.6805 123.144 77.3043 123.177C76.9271 123.209 76.482 123.259 75.9662 123.326C75.9856 123.193 76.0011 123.078 76.0166 122.98C76.0302 122.88 76.0379 122.793 76.0379 122.718C76.0379 122.586 76.0282 122.471 76.0089 122.372C75.9895 122.272 75.9759 122.19 75.9662 122.125ZM85.7516 122.195C85.9136 122.195 86.0474 122.19 86.1511 122.181C86.5613 122.143 86.7862 122.125 86.825 122.125V131.815C86.6621 131.815 86.5293 131.811 86.4236 131.802C86.0134 131.764 85.7904 131.745 85.7516 131.745C85.5897 131.745 85.3803 131.757 85.1224 131.779C84.8644 131.804 84.7161 131.815 84.6783 131.815V122.125C84.8402 122.125 85.0506 122.136 85.3076 122.16C85.5655 122.183 85.7138 122.195 85.7516 122.195Z" fill="#00305D"/>
</svg>
