<svg xmlns="http://www.w3.org/2000/svg" width="61" height="70" fill="none">
    <path fill="#fff" fill-rule="evenodd"
          d="M58.339 39.067a34.753 34.753 0 0 1-7.647 11.347 34.99 34.99 0 0 1-22.539 10.139v4.781h11.731V70H11.729v-4.666H23.46v-4.781A34.989 34.989 0 0 1 .922 50.414l3.318-3.299a30.296 30.296 0 0 0 9.888 6.591A30.444 30.444 0 0 0 25.807 56c8.148 0 15.807-3.157 21.567-8.885a30.132 30.132 0 0 0 6.628-9.834 29.997 29.997 0 0 0 2.306-11.614c0-8.104-3.174-15.72-8.934-21.449L50.692.919a34.753 34.753 0 0 1 7.647 11.347 34.581 34.581 0 0 1 2.662 13.4 34.586 34.586 0 0 1-2.662 13.401ZM25.808 51.333c-14.23 0-25.81-11.515-25.81-25.667C-.002 11.515 11.577 0 25.808 0c14.229 0 25.808 11.515 25.808 25.666 0 14.152-11.579 25.667-25.808 25.667ZM14.766 7.8C8.734 11.5 4.692 18.116 4.692 25.666c0 11.581 9.471 21 21.116 21 10.851 0 19.805-8.183 20.978-18.666h-4.212a6.096 6.096 0 0 1-3.556-1.139 6.044 6.044 0 0 1-2.211-2.996l-.434-1.302a1 1 0 0 0-1.267-.632l-1.574.523a.997.997 0 0 0-.685.944v13.771c0 2.663-2.18 4.831-4.857 4.831h-5.066a4.866 4.866 0 0 1-2.84-.91 4.829 4.829 0 0 1-1.766-2.392l-1.37-4.088a1.388 1.388 0 0 0-.549-.709l-4.197-2.784a6.264 6.264 0 0 1-2.818-5.236v-3.255a6.286 6.286 0 0 1 1.855-4.448 6.358 6.358 0 0 1 4.473-1.845h2.546a3 3 0 0 0 2.284-1.051 2.96 2.96 0 0 0 .671-2.412 2.98 2.98 0 0 0-1.416-2.07l-5.031-3Zm11.042-3.134c-2.009 0-3.948.299-5.793.824l2.198 1.309a7.587 7.587 0 0 1 3.545 4.879 7.546 7.546 0 0 1-1.104 5.917A7.687 7.687 0 0 1 18.258 21h-2.546a1.633 1.633 0 0 0-1.636 1.626v3.255c0 .543.272 1.05.727 1.351l4.203 2.786a6.106 6.106 0 0 1 2.393 3.113l1.37 4.093 5.221.109.164-13.935a5.654 5.654 0 0 1 3.893-5.369l1.574-.523a5.657 5.657 0 0 1 4.347.308 5.623 5.623 0 0 1 2.853 3.271l.439 1.305c.188.563.717.943 1.314.943h4.212C45.613 12.849 36.659 4.666 25.808 4.666Z"
          clip-rule="evenodd" />
</svg>
