<svg width="21" height="21" viewBox="0 0 21 21" fill="none" xmlns="http://www.w3.org/2000/svg">
<path fill-rule="evenodd" clip-rule="evenodd" d="M14.9889 18.063C15.5277 18.0923 15.8995 17.9605 16.2114 17.6531L17.7635 16.1013L15.8673 14.1983L14.652 15.3841C14.1908 15.8379 13.488 15.9402 12.9228 15.6328C11.8437 15.0327 10.1833 13.5543 8.77028 12.1344C8.03817 11.4025 7.32505 10.6267 6.73204 9.92402C6.15953 9.23602 5.62951 8.53324 5.32788 7.94771C5.04089 7.37681 5.14927 6.68894 5.59732 6.24979C5.92238 5.91311 6.31912 5.54724 6.64857 5.23984C6.69396 5.19592 6.73939 5.15188 6.78039 5.10796L4.90614 3.23422L3.35264 4.78596C3.0393 5.10801 2.90168 5.47409 2.93243 6.01571C2.96464 6.60124 3.20473 7.34781 3.67035 8.22611C4.60159 9.98271 6.21376 11.8564 7.66774 13.3056C9.11439 14.7548 10.993 16.365 12.7588 17.3164C13.6432 17.7849 14.3973 18.0337 14.9889 18.063ZM11.3825 19.8928C9.2359 18.751 7.11572 16.8918 5.59732 15.3841C4.07014 13.8471 2.21789 11.7392 1.08311 9.60202C0.51646 8.53343 0.0727876 7.3476 0.00836177 6.17653C-0.0604567 4.94691 0.289485 3.71749 1.28223 2.72209L3.34826 0.657858C4.16091 -0.161888 5.546 -0.264385 6.43918 0.628552L9.4057 3.60017C10.2989 4.49311 10.195 5.86927 9.38085 6.68901C9.293 6.77684 9.09829 6.9526 8.88012 7.15754C8.80398 7.23073 8.72492 7.30378 8.64731 7.37697C8.60778 7.42089 8.56816 7.45028 8.52863 7.49419C8.65895 7.65521 8.80834 7.84534 8.97673 8.05028C9.50531 8.67972 10.1598 9.38255 10.8465 10.0705C11.8026 11.0367 12.7457 11.8855 13.4631 12.4564L14.3197 11.6073C15.1338 10.8022 16.5146 10.7001 17.4063 11.593L20.3713 14.5643C21.2645 15.4572 21.1605 16.8333 20.3464 17.6531L18.2818 19.717C17.2862 20.7124 16.0489 21.0639 14.8146 20.9907C13.6344 20.9175 12.4543 20.4637 11.3825 19.8928Z" fill="#AE9675"/>
</svg>
