<svg width="60" height="60" viewBox="0 0 60 60" fill="none" xmlns="http://www.w3.org/2000/svg">
<rect width="60" height="60" rx="30" fill="#AE9675"/>
<path d="M27.8125 40H20V29.2641C20 26.3781 20.5208 24.1847 21.5625 22.684C22.7083 21.1255 24.6354 20.2309 27.3438 20V25.1082C26.4063 25.1082 25.625 25.5411 25 26.4069C24.6875 26.8687 24.5312 27.7633 24.5312 29.0909V30.7359H27.8125V40ZM40 40H32.1875V29.2641C32.1875 26.3781 32.6563 24.2713 33.5938 22.9437C34.8438 21.2121 36.8229 20.2309 39.5312 20V25.1082C37.9167 25.1082 37.0052 26.0029 36.7969 27.7922C36.7448 28.0231 36.7188 28.456 36.7188 29.0909V30.7359H40V40Z" fill="white"/>
</svg>
