<svg xmlns="http://www.w3.org/2000/svg" width="67" height="66" fill="none">
    <path fill="#AE9675" fill-rule="evenodd"
          d="M65.661 64.731A2.54 2.54 0 0 1 63.462 66H2.539a2.538 2.538 0 1 1 0-5.077h2.539V10.154a2.539 2.539 0 0 1 2.538-2.539H17.77a2.54 2.54 0 0 1 2.538 2.539v17.769l16.246-12.185a2.538 2.538 0 0 1 4.062 2.031v17.262l16.098-14.094a2.538 2.538 0 0 1 4.209 1.909v38.077h2.538c.908 0 1.746.484 2.2 1.269a2.542 2.542 0 0 1 0 2.539Zm-9.816-36.3L39.747 42.524a2.537 2.537 0 0 1-3.504-.156 2.543 2.543 0 0 1-.705-1.753V22.846L19.292 35.031A2.536 2.536 0 0 1 15.231 33V12.692h-5.077v48.231h45.691V28.431Zm-35.537 19.8h2.538c1.402 0 2.539 1.401 2.539 2.538v2.538a2.54 2.54 0 0 1-2.539 2.539h-2.538c-1.402 0-2.539-1.402-2.539-2.539v-2.538a2.538 2.538 0 0 1 2.539-2.538Zm12.692 0h2.538c1.402 0 2.539 1.401 2.539 2.538v2.538a2.54 2.54 0 0 1-2.539 2.539H33c-1.402 0-2.539-1.402-2.539-2.539v-2.538A2.538 2.538 0 0 1 33 48.231Zm12.692 0h2.539c1.402 0 2.538 1.401 2.538 2.538v2.538a2.538 2.538 0 0 1-2.538 2.539h-2.539c-1.402 0-2.538-1.402-2.538-2.539v-2.538a2.538 2.538 0 0 1 2.538-2.538ZM17.769 5.077H7.615a2.538 2.538 0 1 1 0-5.077h10.154a2.54 2.54 0 0 1 2.199 3.808 2.54 2.54 0 0 1-2.199 1.269Z"
          clip-rule="evenodd"/>
</svg>
