<svg xmlns="http://www.w3.org/2000/svg" width="14" height="18" fill="none">
    <path fill="#fff" fill-rule="evenodd"
          d="M2 8.665a.89.89 0 0 1 0-1.209c.316-.332.842-.326 1.263.01l2.842 2.864V1.3c0-.472.421-.856.842-.856.526 0 .948.384.948.856v9.03l2.842-2.863c.315-.337.842-.343 1.263-.01a.89.89 0 0 1 0 1.208l-4.421 4.356c-.106.164-.421.256-.632.256-.21 0-.42-.092-.631-.256L2 8.665ZM.842 15.843c-.42 0-.842.384-.842.857 0 .472.421.855.842.855h12.21c.527 0 .948-.383.948-.855 0-.473-.421-.857-.947-.857H.843Z"
          clip-rule="evenodd" />
</svg>
