<svg xmlns="http://www.w3.org/2000/svg" width="70" height="69" fill="none">
    <path fill="#AE9675" fill-rule="evenodd"
          d="m69.474 53.996-5.253 6.137a6.552 6.552 0 0 1-4.983 2.295h-1.544a4.353 4.353 0 0 1-3.672-2.002l-1.521-2.354-1.52 2.353a4.355 4.355 0 0 1-3.673 2.004h-1.645a4.354 4.354 0 0 1-3.673-2.004l-1.52-2.352-1.52 2.352a4.357 4.357 0 0 1-3.673 2.004h-5.758a16.324 16.324 0 0 1-13.112 6.57 16.403 16.403 0 0 1-13.823-7.578 16.451 16.451 0 0 1-1.07-15.745 16.414 16.414 0 0 1 12.669-9.387 16.297 16.297 0 0 1 8.547 1.11 16.323 16.323 0 0 1 6.791 5.315h29.717a6.553 6.553 0 0 1 4.983 2.294l5.253 6.137a2.191 2.191 0 0 1 0 2.851Zm-8.575-6.137a2.183 2.183 0 0 0-1.661-.765H28.376a2.184 2.184 0 0 1-1.841-1.008A11.954 11.954 0 0 0 16.4 40.523c-.549 0-1.098.036-1.643.11a12.029 12.029 0 0 0-9.278 6.889 12.06 12.06 0 0 0 .793 11.538 12.023 12.023 0 0 0 10.133 5.55c4.102 0 7.92-2.094 10.13-5.556a2.185 2.185 0 0 1 1.841-1.007h6.9l1.519-2.353a4.376 4.376 0 0 1 3.674-2.003c1.484 0 2.867.755 3.674 2.002l1.52 2.355h1.644l1.519-2.355a4.377 4.377 0 0 1 3.674-2.002c1.484 0 2.868.755 3.674 2.002l1.52 2.355h1.544c.639 0 1.246-.28 1.661-.766l4.033-4.711-4.033-4.712ZM16.408 59.142a6.56 6.56 0 0 1-4.641-1.925 6.58 6.58 0 0 1 0-9.294A6.56 6.56 0 0 1 16.408 46a6.568 6.568 0 0 1 4.638 1.927 6.584 6.584 0 0 1 1.924 4.645 6.579 6.579 0 0 1-1.922 4.647 6.56 6.56 0 0 1-4.64 1.924Zm1.546-8.12a2.187 2.187 0 0 0-3.734 1.549 2.192 2.192 0 0 0 2.188 2.19 2.192 2.192 0 0 0 1.546-3.74Zm39.484-23.816c-.188 0-.375-.021-.563-.037v10.068a2.19 2.19 0 0 1-1.093 1.896 2.182 2.182 0 0 1-2.188 0 2.19 2.19 0 0 1-1.093-1.896V25.465l-16.433-9.213a2.194 2.194 0 0 0-2.136 0L17.5 25.465v5.2a2.19 2.19 0 0 1-3.281 1.898 2.19 2.19 0 0 1-1.094-1.898V27.17a7.032 7.032 0 0 1-4.148-.95 7.029 7.029 0 0 1-3.508-6.129 6.567 6.567 0 0 1 3.356-5.734l22.969-12.88a6.595 6.595 0 0 1 6.412 0l9.919 5.563V6.57A6.575 6.575 0 0 1 51.406.879a6.555 6.555 0 0 1 6.563 0A6.575 6.575 0 0 1 61.25 6.57v7.835a6.578 6.578 0 0 1 3.281 5.684 7.133 7.133 0 0 1-2.081 5.023 7.116 7.116 0 0 1-5.012 2.093ZM56.876 6.57a2.185 2.185 0 1 0-4.375 0v2.922l4.375 2.452V6.571Zm2.98 12.412a2.184 2.184 0 0 0-.819-.803L36.069 5.3a2.196 2.196 0 0 0-2.137 0L10.963 18.18a2.193 2.193 0 0 0-1.118 1.912c0 .966.512 1.86 1.345 2.349a2.716 2.716 0 0 0 2.704.027L31.795 12.43a6.597 6.597 0 0 1 6.413 0l17.9 10.038a2.723 2.723 0 0 0 4.049-2.376c0-.39-.104-.772-.301-1.108Z"
          clip-rule="evenodd" />
</svg>
