<svg xmlns="http://www.w3.org/2000/svg" width="18" height="18" style="fill:none">
    <path
        d="M12.901 18H5.098A5.097 5.097 0 0 1 0 12.902V5.097A5.098 5.098 0 0 1 5.098 0H12.9A5.098 5.098 0 0 1 18 5.097v7.805A5.098 5.098 0 0 1 12.901 18zm3.027-12.709a3.21 3.21 0 0 0-3.21-3.21H5.291a3.21 3.21 0 0 0-3.21 3.21v7.428a3.209 3.209 0 0 0 3.21 3.208h7.427a3.209 3.209 0 0 0 3.21-3.208zm-2.105-.01a1.087 1.087 0 1 1 0-2.173 1.087 1.087 0 0 1 0 2.173zm-4.809 8.39a4.63 4.63 0 1 1-.001-9.26 4.63 4.63 0 0 1 .001 9.26zm0-7.665a3.035 3.035 0 1 0-.001 6.07 3.035 3.035 0 0 0 .001-6.07z"
        style="clip-rule:evenodd;fill:#6e6e6e;fill-rule:evenodd"/>
</svg>
