<svg width="125" height="128" viewBox="0 0 125 128" fill="none" xmlns="http://www.w3.org/2000/svg">
<path fill-rule="evenodd" clip-rule="evenodd" d="M102.723 60.2402L125 59.0028V62.7658L102.723 61.5284V60.2402ZM102.502 56.7892L102.433 56.1486L124.456 52.6504L124.659 54.52L124.86 56.3909L102.573 57.4298L102.502 56.7892ZM101.843 52.739L101.706 52.1079L123.233 46.3865L124.036 50.0656L101.981 53.3689L101.843 52.739ZM100.549 48.1629L121.345 40.2823L122.538 43.8597L100.958 49.3884L100.549 48.1629ZM98.9753 44.3597L118.811 34.4037L120.382 37.8394L99.515 45.5356L98.9753 44.3597ZM97.0019 40.7349L115.661 28.8147L117.594 32.0696L97.6641 41.8518L97.0019 40.7349ZM95.0404 37.8547L94.6517 37.3324L111.928 23.5768L113.065 25.0978L114.199 26.6189L95.4303 38.3748L95.0404 37.8547ZM91.9484 34.1863L107.656 18.7477L110.239 21.5428L92.834 35.1448L91.9484 34.1863ZM88.923 90.433L89.9073 89.5703L93.413 92.9539H90.9998L88.923 90.433ZM91.9496 87.5812L92.3918 87.1014L92.8352 86.6227L100.938 92.9539H97.4156L91.9496 87.5812ZM94.6529 84.4351L95.0416 83.9151L95.4303 83.3927L110.697 92.9539H105.352L94.6529 84.4351ZM115.662 92.9539L97.0043 81.0326L97.3348 80.4759L97.6652 79.9157L117.594 89.6979L115.662 92.9539ZM118.812 87.3661L98.9765 77.409L99.2451 76.8204L99.5162 76.2319L120.383 83.9304L118.812 87.3661ZM121.345 81.4876L100.55 73.6058L100.755 72.9912L100.959 72.379L122.538 77.9089L121.942 79.6982L121.345 81.4876ZM102.573 64.3389L124.86 65.3789L124.458 69.1195L102.433 65.6212L102.502 64.9794L102.573 64.3389ZM123.233 75.3821L101.707 69.6608L101.845 69.0297L101.982 68.4009L124.036 71.703L123.636 73.542L123.233 75.3821ZM89.4151 31.7658L88.923 31.3345L102.886 14.3808L105.756 16.8969L89.9061 32.1984L89.4151 31.7658ZM86.1424 29.1847L85.6075 28.8065L97.6759 10.5244L100.8 12.7333L86.6774 29.564L86.1424 29.1847ZM82.6117 26.9522L82.0388 26.6295L92.078 7.21876L95.4232 9.0979L83.1847 27.2736L82.6117 26.9522ZM86.6774 92.2022L87.3086 92.9539H85.6158L86.1436 92.5828L86.6774 92.2022ZM81.2637 73.341L83.0492 74.153V74.1589L84.2951 74.7274C85.1843 75.1316 85.9177 76.1657 85.9177 77.0343V84.5935C84.5126 86.1192 82.9553 87.5091 81.2637 88.7347V73.341ZM78.2561 24.8284L86.1579 4.50049L87.9232 5.26397L89.6862 6.02981L79.4651 25.3519L78.2561 24.8284ZM76.5086 19.913C76.1519 19.6932 75.7798 19.5337 75.3875 19.3954L79.9786 2.40034L83.6507 3.5621L76.9829 20.2546C76.8224 20.1151 76.6595 19.9958 76.5086 19.913ZM74.9037 10.5587C74.3319 9.86138 73.5164 9.12272 72.4239 8.44079L73.6056 0.940755L77.3835 1.72314L74.9085 10.5622L74.9037 10.5587ZM68.0647 5.80408C67.6605 5.56771 67.2622 5.33488 66.8688 5.10442L67.1137 0.139459L70.9534 0.531834L69.8918 6.8772C69.2808 6.51437 68.6686 6.15627 68.0647 5.80408ZM61.7118 94.7763C61.3088 94.7657 60.907 94.748 60.5076 94.7231V44.0807L62.5167 43.1648L61.7118 94.7763ZM61.7273 1.41586C61.4491 1.06485 61.0414 0.868662 60.6194 0.841479L60.5706 0H64.4318L64.2285 3.47583C63.1241 2.74426 62.2349 2.05288 61.7273 1.41586ZM57.859 94.4537V45.2992L59.8692 44.3845L59.0918 94.6073C58.6781 94.5636 58.268 94.5116 57.859 94.4537ZM56.4884 94.2244C56.0651 94.144 55.6443 94.0554 55.2259 93.9597V46.5555L57.2337 45.642L56.4884 94.2244ZM54.0478 0.530652L55.9677 0.333282L57.8887 0.138277L58.5699 14.044L56.0271 12.3551L54.0478 0.530652ZM54.6315 46.9857L53.9218 93.6323C53.4855 93.5117 53.0528 93.3805 52.6236 93.2423V50.523C52.6236 49.288 53.4689 47.865 54.6184 46.9928L54.6315 46.9857ZM51.8914 11.4403L51.8902 11.4415L51.8854 11.4462C51.864 11.477 51.8426 11.5053 51.7808 11.5928C51.6762 11.737 51.5597 11.9024 51.4598 12.0644C51.2447 12.4201 51.0354 12.803 50.8357 13.2108L47.6177 1.72196L51.3944 0.938391L52.9482 10.7844C52.5404 10.8411 52.1576 11.0586 51.9068 11.4155L51.8914 11.4403ZM48.7114 21.9896L41.3505 3.56092L45.0226 2.39798L49.2154 17.9216C48.923 19.2453 48.7411 20.6292 48.7114 21.9896ZM45.5361 25.3519L35.3162 6.02981L38.8433 4.50049L46.7463 24.8284L45.5361 25.3519ZM42.3906 26.9522L41.8176 27.2736L29.578 9.0979L32.9232 7.21757L42.9636 26.6295L42.3906 26.9522ZM38.3238 92.2034L38.8576 92.5828L39.3854 92.9539H37.6938L38.3238 92.2034ZM43.8683 74.1589V88.828C42.179 87.6143 40.6205 86.2457 39.2142 84.7353V77.8522C39.2142 76.9835 39.9465 75.9494 40.8369 75.544L42.0827 74.9767V74.972L43.8683 74.1589ZM38.8588 29.1847L38.3238 29.564L24.2023 12.7333L27.3264 10.5244L39.3949 28.8065L38.8588 29.1847ZM35.5873 31.7658L35.0963 32.1984L19.2451 16.8969L22.1148 14.3808L36.0794 31.3356L35.5873 31.7658ZM32.1683 35.1459L14.7622 21.5428L17.3455 18.7477L33.0528 34.1863L32.1683 35.1459ZM29.962 37.8547L29.572 38.3748L10.8024 26.6189L13.0718 23.5768L30.3507 37.3324L29.962 37.8547ZM27.6676 41.2939L27.3383 41.8518L7.40965 32.0719L9.33904 28.8147L27.9993 40.7349L27.6676 41.2939ZM25.4874 45.5368L4.61959 37.8394L6.18997 34.4037L26.0247 44.3597L25.4874 45.5368ZM24.043 49.3896L2.46434 43.8586L3.65668 40.2823L24.452 48.1629L24.043 49.3896ZM23.1574 52.739L23.0207 53.3689L0.965288 50.0645L1.7689 46.3865L23.2965 52.1067L23.1574 52.739ZM22.4988 56.7892L22.431 57.4309L0.141465 56.3909L0.544461 52.6504L22.5689 56.1475L22.4988 56.7892ZM0 59.0028L22.2789 60.2402V61.5308L0.00118861 62.7658L0 59.0028ZM0.140276 65.3789L22.4299 64.3389L22.4988 64.9794L22.5689 65.6212L0.544461 69.1195L0.140276 65.3789ZM0.964099 71.7042L23.0195 68.4009L23.2965 69.6619L1.76771 75.3809L0.964099 71.7042ZM2.46196 77.9089L24.0418 72.379L24.452 73.6058L3.65549 81.4876L2.46196 77.9089ZM4.6184 83.9304L25.4862 76.2319L25.7549 76.8204L26.0247 77.409L6.18759 87.3661L4.6184 83.9304ZM7.40847 89.6979L27.3359 79.9157L27.6664 80.4759L27.9981 81.0326L9.33904 92.9539L7.40847 89.6979ZM14.3046 92.9539L29.572 83.3927L29.9608 83.9151L30.3507 84.4351L19.6481 92.9539H14.3046ZM36.0794 90.433L34.0014 92.9539H31.5894L35.0951 89.5703L36.0794 90.433ZM24.0656 92.9539L32.1671 86.6227L32.6106 87.1014L33.0528 87.5812L27.5856 92.9539H24.0656Z" fill="white"/>
<path fill-rule="evenodd" clip-rule="evenodd" d="M86.1212 118.14C86.6006 118.495 87.0776 118.883 87.309 119.065C90.585 122.159 89.5907 126.607 86.3336 128C86.5876 125.115 83.1145 122.627 79.3722 120.51C75.6322 118.489 66.7236 116.236 66.6548 108.252C66.567 97.9967 80.5658 96.2891 80.904 104.727C81.0547 108.485 75.0484 109.401 73.303 105.701C70.3379 107.462 73.0598 113.788 78.9427 113.198C82.9045 112.8 86.5698 109.371 86.6635 104.591C86.6967 102.943 86.3313 101.492 85.6704 100.243C90.0463 101.682 96.8844 99.2775 98.2963 96.1973H113.342C113.236 96.3404 112.555 97.4649 112.449 97.6068C105.763 106.596 96.6767 113.746 86.1212 118.14ZM50.1204 60.1087V93.4343C48.5007 92.7796 46.9476 91.9937 45.4762 91.0922V63.8365C45.4762 62.9588 46.2072 61.9165 47.0959 61.5075L48.3394 60.9351V60.9291L50.1204 60.1087ZM75.8458 60.1099L77.0881 60.6823C77.9768 61.0913 78.7077 62.1336 78.7077 63.0112V91.0123C77.2376 91.9234 75.6844 92.7176 74.0624 93.3818V59.2835L75.8458 60.1051V60.1099ZM64.8786 98.3783C63.6731 99.5792 62.6087 101.143 62.0261 103.015C61.4447 101.143 60.3804 99.5792 59.1749 98.3783C39.7868 96.9414 24.5029 80.9893 24.5029 61.5302C24.5029 45.726 34.5838 32.2388 48.757 26.9585C48.8342 27.3114 48.9172 27.6608 49.0086 28.0043C49.4286 29.5855 50.0017 31.063 50.6496 32.283C45.882 33.9596 41.6069 36.6582 38.0983 40.1141C31.9734 46.1457 28.1848 54.4765 28.1848 63.679C28.1848 72.8804 31.9734 81.2123 38.0983 87.244C43.0949 92.1631 49.6469 95.5533 56.9655 96.6337L57.0427 96.6456L57.21 96.6695L57.369 96.691L57.6217 96.7244L57.8009 96.747L58.0702 96.7792L58.2185 96.7959C58.317 96.8078 58.4143 96.8186 58.5128 96.8281L58.6302 96.8388C58.7394 96.8496 58.8486 96.8603 58.9577 96.871L59.042 96.877C59.1535 96.8865 59.265 96.8961 59.3766 96.9044L59.4703 96.9116C59.583 96.9199 59.6969 96.9283 59.8097 96.9342L59.9034 96.9402C60.0232 96.9485 60.1431 96.9545 60.2641 96.9605L60.2855 96.9629L60.3021 96.964C60.4374 96.97 60.5726 96.9748 60.7067 96.9795L60.7186 96.9819H60.7423C60.8764 96.9867 61.0093 96.9903 61.1433 96.9939H61.1576C61.2976 96.9974 61.4376 97.001 61.5776 97.0022H61.5978C61.7414 97.0046 61.8837 97.0058 62.0261 97.0058C62.1709 97.0058 62.3133 97.0046 62.4557 97.0022H62.4746C62.617 97.001 62.757 96.9974 62.8982 96.9939H62.9113C63.0442 96.9903 63.1783 96.9867 63.3123 96.9819H63.3349L63.3444 96.9795C63.4808 96.9748 63.6161 96.9688 63.7525 96.964L63.768 96.9629L63.7905 96.9605C63.9115 96.9545 64.0326 96.9485 64.1536 96.9402L64.2414 96.9354C64.3577 96.9283 64.4728 96.9199 64.5867 96.9116L64.6733 96.9044C64.7896 96.8961 64.9035 96.8865 65.0186 96.877L65.091 96.871C65.2025 96.8603 65.3152 96.8496 65.4268 96.8388L65.5324 96.8281C65.6368 96.8186 65.74 96.8066 65.8432 96.7947L65.9785 96.7804L66.4235 96.7255L66.6975 96.6898L66.8364 96.6707L67.082 96.6349L67.0891 96.6337C74.4065 95.5533 80.9586 92.1631 85.9563 87.244C92.0812 81.2123 95.8699 72.8804 95.8699 63.679C95.8699 54.4765 92.0812 46.1457 85.9563 40.1141C82.9128 37.1173 79.2939 34.6894 75.2762 33.0044C75.5325 32.3855 75.6192 31.8119 75.5586 31.354C75.5408 31.2145 75.5029 31.0797 75.4483 30.9557L75.4518 30.9545L75.3368 30.6934C75.3201 30.654 75.3012 30.6147 75.2798 30.5765C74.7779 29.4329 74.2902 28.2809 74.066 26.522C88.8835 31.4637 99.5505 45.2716 99.5505 61.5302C99.5505 80.9893 84.2679 96.9414 64.8786 98.3783ZM72.0156 50.6904V94.139C69.0872 95.1061 65.9666 95.6595 62.725 95.7298V43.6534L69.4491 46.7503C70.8801 47.5422 72.0156 49.245 72.0156 50.6904ZM75.262 23.6934C74.5738 24.1382 73.5475 24.3338 72.4238 24.7189C72.4831 28.1283 73.2829 29.7763 74.0553 31.5448C74.1621 32.345 73.2591 34.0264 70.8943 35.4431C66.8494 38.1059 61.8197 40.4981 60.0553 42.7435C59.2318 40.5279 61.205 38.9514 61.4269 37.6075C60.2772 33.8058 60.0102 31.3695 60.5121 27.4915L52.7106 32.723C52.6145 32.5799 52.4128 32.3068 52.319 32.1506C50.9082 29.8049 49.8 26.0784 49.7798 22.6035V22.5808C49.8 19.1059 50.9082 15.3793 52.319 13.0325C52.4128 12.8762 52.6145 12.6032 52.7106 12.4601L60.5121 17.6916C60.0102 13.8135 60.2772 11.3785 61.4269 7.57559C61.205 6.23284 59.2318 4.65636 60.0553 2.44069C61.8197 4.68498 66.8494 7.07713 70.8943 9.74117C73.2591 11.1579 74.1621 12.8381 74.0553 13.6382C73.2829 15.4067 72.4831 17.0548 72.4238 20.4641C73.5475 20.8505 74.5738 21.0449 75.262 21.4908C75.5408 21.6459 75.9941 22.1741 76.1555 22.5808L76.1519 22.5915L76.1555 22.6035C75.9941 23.0089 75.5408 23.5372 75.262 23.6934ZM62.1899 34.5976C63.1201 34.0634 64.767 33.0855 65.8504 32.4857C65.9655 32.7373 66.0319 33.355 65.7649 33.6961C65.0186 34.7526 63.5959 36.1204 63.1759 36.818C62.9849 37.2306 62.7535 38.1202 62.7203 38.7213C64.7611 37.3833 67.2623 35.9964 69.4456 34.6107C69.9155 34.3305 70.7698 33.8487 70.8493 33.2107C70.625 32.6347 70.5752 32.5036 70.5052 31.7952C71.3215 31.5412 71.7878 31.4518 72.107 30.8543C71.7878 30.2569 71.3215 30.1663 70.5052 29.9123C70.5752 29.2063 70.625 29.0751 70.8493 28.498C70.7698 27.86 69.9155 27.3782 69.4456 27.098C67.2623 25.7123 64.7611 24.3266 62.7203 22.9874C62.7535 23.5896 62.9849 24.4781 63.1759 24.8895C63.5959 25.5871 65.0186 26.9561 65.7649 28.0138C66.0319 28.3525 65.9655 28.9726 65.8504 29.223C64.767 28.622 63.1201 27.6465 62.1899 27.1123C61.9253 28.2762 61.7627 29.5283 61.7746 30.8543C61.7627 32.1792 61.9253 33.4337 62.1899 34.5976ZM61.7034 22.5951L61.7022 22.5915L61.7034 22.5879L61.6986 22.5808L61.7034 22.5713C61.3842 21.9547 60.9155 21.8617 60.1004 21.6006C60.1478 20.8672 60.2012 20.5368 60.4445 19.9406C60.3662 19.28 59.5095 18.7827 59.042 18.4905L53.1864 14.5457C53.0025 15.1849 53.0191 15.7335 53.2267 16.1926C53.6456 16.9128 54.6138 18.5418 55.3601 19.6341C55.8027 20.2268 55.5298 20.7873 55.4444 20.8851C54.3623 20.2638 52.6845 19.2537 51.7519 18.7028C51.4825 19.7713 51.2927 21.1414 51.2974 22.5915C51.2927 24.0428 51.4825 25.4118 51.7519 26.4815C52.6845 25.9293 54.3623 24.9181 55.4444 24.2992C55.5298 24.397 55.8027 24.9574 55.3601 25.5489C54.6138 26.6424 53.6456 28.2714 53.2267 28.9905C53.0191 29.4496 53.0025 29.9993 53.1864 30.6373L59.042 26.6913C59.5095 26.4004 60.3662 25.9043 60.4445 25.2448C60.2012 24.6474 60.1478 24.3159 60.1004 23.5825C60.9155 23.3225 61.3842 23.2295 61.7034 22.613L61.6986 22.6035L61.7034 22.5951ZM70.5052 13.3819C70.5752 12.6735 70.625 12.5435 70.8493 11.9664C70.7698 11.3272 69.9155 10.8466 69.4456 10.5664C67.2623 9.18069 64.7611 7.79501 62.7203 6.45464C62.7535 7.05685 62.9849 7.94646 63.1759 8.35906C63.5959 9.05548 65.0186 10.4245 65.7649 11.4822C66.0319 11.8209 65.9655 12.4398 65.8504 12.6914C64.767 12.0904 63.1201 11.1137 62.1899 10.5795C61.9253 11.7446 61.7627 12.9967 61.7746 14.3227C61.7627 15.6464 61.9253 16.9009 62.1899 18.0648C63.1201 17.5306 64.767 16.5551 65.8504 15.9541C65.9655 16.2057 66.0319 16.8234 65.7649 17.1633C65.0186 18.221 63.5959 19.59 63.1759 20.2864C62.9849 20.699 62.7535 21.5886 62.7203 22.1897C64.7611 20.8505 67.2623 19.4648 69.4456 18.0791C69.9155 17.7977 70.7698 17.3159 70.8493 16.6791C70.625 16.102 70.5752 15.972 70.5052 15.2624C71.3215 15.0096 71.7878 14.9202 72.107 14.3227C71.7878 13.7253 71.3215 13.6335 70.5052 13.3819ZM72.1924 22.5808C72.0583 22.1169 71.4793 21.8355 70.5325 21.628C70.7033 21.2237 71.0735 20.8362 70.9774 19.2072L70.0282 19.8917L65.5656 22.5808L65.7459 22.5915L65.5656 22.6035L70.0282 25.2925L70.9774 25.977C71.0735 24.3481 70.7033 23.9581 70.5325 23.5563C71.4793 23.3476 72.0583 23.0673 72.1924 22.6035L72.1865 22.5915L72.1924 22.5808ZM38.3831 100.243C37.7234 101.492 37.3567 102.943 37.39 104.591C37.4849 109.371 41.1489 112.8 45.1096 113.198C50.9949 113.788 53.7156 107.462 50.7504 105.701C49.005 109.401 42.9999 108.485 43.1506 104.727C43.4876 96.2891 57.4864 97.9967 57.3998 108.252C57.331 116.236 48.4212 118.489 44.6813 120.51C40.9413 122.627 37.4647 125.115 37.7198 128C34.4639 126.607 33.4684 122.159 36.7457 119.065C36.9759 118.883 37.4528 118.495 37.9322 118.14C27.3767 113.746 18.289 106.596 11.604 97.6068C11.4984 97.4649 10.8174 96.3404 10.7129 96.1973H25.7571C27.1703 99.2775 34.0083 101.682 38.3831 100.243ZM62.0261 112.709C63.7632 117.17 67.2042 120.115 71.6051 122.212C71.6122 122.216 71.5754 122.234 71.5553 122.239C68.4477 122.722 65.2666 122.984 62.0261 123.003C58.7881 122.984 55.6046 122.722 52.4994 122.239C52.478 122.234 52.4424 122.216 52.4484 122.212C56.8492 120.115 60.2914 117.17 62.0261 112.709Z" fill="white"/>
</svg>
