<svg xmlns="http://www.w3.org/2000/svg" width="70" height="68" fill="none">
    <g clip-path="url(#a)">
        <path fill="#AE9675" fill-rule="evenodd"
              d="m61.215 21.542.036.395v30.708a2.19 2.19 0 0 1-2.188 2.193 2.19 2.19 0 0 1-2.152-1.799l-.035-.394V21.937a2.19 2.19 0 0 1 2.187-2.194 2.19 2.19 0 0 1 2.152 1.8Zm-8.75-4.387.036.395v35.095a2.19 2.19 0 0 1-2.188 2.193 2.19 2.19 0 0 1-2.152-1.799l-.035-.394V17.55a2.19 2.19 0 0 1 2.187-2.194 2.19 2.19 0 0 1 2.152 1.8Zm15.742 50.808-.394.036H2.188A2.19 2.19 0 0 1 .036 66.2l-.035-.394V35.098a2.19 2.19 0 0 1 1.794-2.158l.393-.036h4.375a2.19 2.19 0 0 1 2.187 2.194 2.19 2.19 0 0 1-1.794 2.157l-.393.036H4.379v26.321l8.746-.002V21.938c0-1.077.774-1.973 1.795-2.158l.393-.036h26.25a2.19 2.19 0 0 1 2.152 1.8l.035.394.004 41.675h21.87V14.704L39.379 5.307l-.004 7.858a2.192 2.192 0 0 1-1.794 2.158l-.393.035a2.19 2.19 0 0 1-2.152-1.799L35 13.165V2.198a2.19 2.19 0 0 1 2.567-2.16V.034l.357.096 30.625 10.967a2.19 2.19 0 0 1 1.417 1.675l.035.39v52.642a2.192 2.192 0 0 1-1.794 2.158ZM39.379 24.13H17.504v39.482h21.875V24.13ZM23.67 32.94l.393-.036h8.75a2.19 2.19 0 0 1 2.188 2.193 2.193 2.193 0 0 1-1.794 2.158l-.394.036h-8.75a2.19 2.19 0 0 1-2.187-2.194c0-1.077.773-1.972 1.794-2.158Zm0 8.773.393-.035h8.75a2.19 2.19 0 0 1 2.188 2.193 2.193 2.193 0 0 1-1.794 2.158l-.394.035h-8.75a2.19 2.19 0 0 1-2.187-2.193 2.19 2.19 0 0 1 1.794-2.158Zm0 8.774.393-.036h8.75a2.19 2.19 0 0 1 2.188 2.194 2.192 2.192 0 0 1-1.794 2.157l-.394.036h-8.75a2.19 2.19 0 0 1-2.187-2.193 2.19 2.19 0 0 1 1.794-2.158Z"
              clip-rule="evenodd"/>
    </g>
    <defs>
        <clipPath id="a">
            <path fill="#fff" d="M0 0h70v68H0z"/>
        </clipPath>
    </defs>
</svg>
