<svg xmlns="http://www.w3.org/2000/svg" width="70" height="60" fill="none">
    <path fill="#AE9675" fill-rule="evenodd"
          d="M69.33 34.3a2.5 2.5 0 0 1-3.654.004l-3.301-3.049V57.47a2.498 2.498 0 0 1-2.5 2.499h-10a2.5 2.5 0 1 1 0-4.998h7.5V26.657l-22.5-20.768-22.5 20.768v28.314h7.5a2.498 2.498 0 1 1 0 4.998h-10a2.5 2.5 0 0 1-2.5-2.499V31.255l-3.3 3.049a2.5 2.5 0 0 1-3.399-3.649L33.175.666a2.501 2.501 0 0 1 3.4 0l32.5 29.989c.539.437.871 1.077.92 1.767a2.502 2.502 0 0 1-.665 1.878Zm-48.154-.483a14.996 14.996 0 0 1 7.674-7.586 2.503 2.503 0 0 1 3.525 2.275v11.47h4.901v-11.47a2.495 2.495 0 0 1 1.125-2.099 2.496 2.496 0 0 1 2.5-.176 14.996 14.996 0 0 1 8.269 18.358 14.998 14.998 0 0 1-6.795 8.383v4.498a2.498 2.498 0 1 1-5 0v-6.023a2.502 2.502 0 0 1 1.475-2.274 9.993 9.993 0 0 0 3.525-15.794v6.597a4.998 4.998 0 0 1-4.999 4.998h-5.001a5.003 5.003 0 0 1-5-4.998v-6.597a9.995 9.995 0 0 0 3.526 15.794 2.493 2.493 0 0 1 1.474 2.274v6.023a2.498 2.498 0 0 1-3.75 2.164 2.498 2.498 0 0 1-1.249-2.164v-4.498a14.99 14.99 0 0 1-6.2-19.155Z"
          clip-rule="evenodd" />
</svg>
