<svg xmlns="http://www.w3.org/2000/svg" width="62" height="70" fill="none">
    <path fill="#AE9675" fill-rule="evenodd"
          d="M62 52.5c0 9.658-7.938 17.501-17.714 17.501-9.777 0-17.716-7.843-17.716-17.501 0-1.569.211-3.09.604-4.537-.925.106-1.864.161-2.817.161C10.914 48.124 0 37.342 0 24.062 0 10.782 10.914-.001 24.357-.001s24.358 10.783 24.358 24.063c0 3.972-.976 7.719-2.703 11.021C54.979 35.942 62 43.417 62 52.5ZM24.357 4.374c-10.998 0-19.928 8.823-19.928 19.688 0 10.865 8.93 19.687 19.928 19.687 1.714 0 3.379-.214 4.967-.616a17.75 17.75 0 0 1 11.346-7.767 19.418 19.418 0 0 0 3.616-11.304c0-10.865-8.93-19.688-19.929-19.688Zm19.929 35.002C36.952 39.376 31 45.256 31 52.5c0 7.245 5.953 13.125 13.286 13.125 7.332 0 13.284-5.88 13.284-13.125 0-7.244-5.952-13.124-13.284-13.124Zm6.643 15.311H46.5v4.375c0 1.208-.992 2.188-2.214 2.188-1.223 0-2.215-.98-2.215-2.188v-4.375h-4.428c-1.223 0-2.215-.98-2.215-2.187 0-1.208.992-2.188 2.215-2.188h4.428v-4.375c0-1.207.992-2.188 2.215-2.188 1.222 0 2.214.981 2.214 2.188v4.375h4.429c1.222 0 2.215.98 2.215 2.188 0 1.207-.993 2.187-2.215 2.187ZM24.357 21.875c3.669 0 6.643 2.938 6.643 6.562 0 2.858-1.849 5.287-4.429 6.188v2.562c0 1.208-.992 2.188-2.214 2.188s-2.214-.98-2.214-2.188V35h-2.215c-1.222 0-2.214-.98-2.214-2.188 0-1.207.992-2.187 2.214-2.187h4.429c1.222 0 2.214-.98 2.214-2.188 0-1.207-.992-2.187-2.214-2.187-3.669 0-6.643-2.938-6.643-6.563 0-2.857 1.849-5.286 4.429-6.187v-2.563c0-1.207.992-2.187 2.214-2.187s2.214.98 2.214 2.187v2.188h2.215c1.222 0 2.214.98 2.214 2.187 0 1.208-.992 2.188-2.214 2.188h-4.429c-1.222 0-2.214.98-2.214 2.187 0 1.208.992 2.188 2.214 2.188Z"
          clip-rule="evenodd"/>
</svg>
