<svg width="17" height="9" viewBox="0 0 17 9" fill="none" xmlns="http://www.w3.org/2000/svg">
<path d="M0.000215842 1.19555C0.00021585 1.01875 0.0653504 0.841959 0.204926 0.702384C0.474772 0.432538 0.921415 0.432538 1.19126 0.702384L7.25814 6.76926C7.70478 7.21591 8.43057 7.21591 8.87721 6.76926L14.9441 0.702384C15.2139 0.432538 15.6606 0.432539 15.9304 0.702384C16.2003 0.97223 16.2003 1.41887 15.9304 1.68872L9.86355 7.7556C9.38899 8.23015 8.74694 8.5 8.06768 8.5C7.38841 8.5 6.74636 8.23946 6.27181 7.7556L0.204926 1.68872C0.0746554 1.54914 0.000215835 1.37235 0.000215842 1.19555Z" fill="#00305D"/>
</svg>
