<svg xmlns="http://www.w3.org/2000/svg" width="60" height="60" fill="none">
    <path fill="#fff"
          d="M15.452 56.875a7.08 7.08 0 0 1-.75-.05l-5.425-.75c-2.6-.35-4.95-2.675-5.35-5.325l-.75-5.475c-.25-1.75.5-4.025 1.75-5.3L15.902 29c-1.775-7.1.275-14.6 5.5-19.775 8.1-8.075 21.275-8.1 29.4 0 3.925 3.925 6.075 9.15 6.075 14.7 0 5.55-2.15 10.775-6.075 14.7-5.25 5.2-12.725 7.25-19.775 5.45l-11 10.975c-1.05 1.1-2.925 1.825-4.575 1.825ZM36.077 6.9c-4.375 0-8.725 1.65-12.05 4.975-4.5 4.475-6.125 11.025-4.25 17.125.2.675.025 1.375-.475 1.875l-11.75 11.75c-.425.425-.775 1.525-.7 2.1l.75 5.475c.15.95 1.175 2.025 2.125 2.15l5.45.75c.6.1 1.7-.25 2.125-.675l11.8-11.775c.5-.5 1.225-.65 1.875-.45 6.025 1.9 12.6.275 17.1-4.225 3.2-3.2 4.975-7.5 4.975-12.05 0-4.575-1.775-8.85-4.975-12.05-3.25-3.3-7.625-4.975-12-4.975Z"/>
    <path fill="#fff"
          d="M22.974 51.351c-.475 0-.95-.175-1.325-.55l-5.75-5.75a1.886 1.886 0 0 1 0-2.65 1.886 1.886 0 0 1 2.65 0l5.75 5.75a1.886 1.886 0 0 1 0 2.65c-.375.375-.85.55-1.325.55ZM36.25 29.375a5.633 5.633 0 0 1-5.625-5.625c0-3.1 2.525-5.625 5.625-5.625s5.625 2.525 5.625 5.625-2.525 5.625-5.625 5.625Zm0-7.5c-1.025 0-1.875.85-1.875 1.875s.85 1.875 1.875 1.875 1.875-.85 1.875-1.875-.85-1.875-1.875-1.875Z"/>
</svg>
