<svg xmlns="http://www.w3.org/2000/svg" width="37" height="44" fill="none">
    <path fill="#fff" fill-opacity=".5" fill-rule="evenodd"
          d="M25.667 9.167h-5.5a1.833 1.833 0 0 0 0 3.667h5.5a1.833 1.833 0 0 0 0-3.667Zm0 14.667H15.5a1.833 1.833 0 0 0 0 3.666h10.167a1.833 1.833 0 0 0 0-3.666Zm0-7.334H11a1.833 1.833 0 0 0 0 3.667h14.667a1.833 1.833 0 0 0 0-3.667Z"
          clip-rule="evenodd"/>
    <path fill="#fff" fill-opacity=".5"
          d="M29.335 0h-22A7.333 7.333 0 0 0 0 7.333v29.334A7.333 7.333 0 0 0 7.335 44h22a7.333 7.333 0 0 0 7.333-7.333V7.333A7.333 7.333 0 0 0 29.335 0Zm0 3.667A3.667 3.667 0 0 1 33 7.333v29.334a3.667 3.667 0 0 1-3.666 3.666h-22a3.667 3.667 0 0 1-3.667-3.666V7.333a3.667 3.667 0 0 1 3.667-3.666h22Z"/>
</svg>
