<svg width="21" height="17" viewBox="0 0 21 17" fill="none" xmlns="http://www.w3.org/2000/svg">
<path fill-rule="evenodd" clip-rule="evenodd" d="M21 3.05997C20.985 1.35997 19.65 0 18 0H3C1.35 0 0.015 1.35997 0 3.05997C0 3.07542 0 3.09092 0 3.10638V13.9091C0 15.6091 1.35 17 3 17H18C19.65 17 21 15.6091 21 13.9091V3.10638C21 3.09092 21 3.07542 21 3.05997ZM16.7999 3.09091L10.5 7.41826L4.20007 3.09091H16.7999ZM18 5.9809L11.3551 10.5399C11.2951 10.5863 11.2199 10.6328 11.1449 10.6791C10.9349 10.7719 10.71 10.8182 10.5 10.8182C10.29 10.8182 10.0651 10.7719 9.8551 10.6791C9.7801 10.6328 9.7049 10.5863 9.6449 10.5399L3 5.9809V13.9091H18V5.9809Z" fill="#AE9675"/>
</svg>
