<svg xmlns="http://www.w3.org/2000/svg" width="72" height="111" fill="none">
    <path fill="#fff" fill-rule="evenodd"
          d="M72 55.528c-.438 1.12-1.677 2.572-2.438 3.001-1.877 1.227-4.682 1.766-7.748 2.824.163 9.393 2.344 13.931 4.455 18.803.29 2.203-2.174 6.832-8.63 10.734-11.044 7.334-24.772 13.923-29.591 20.107-2.245-6.103 3.14-10.444 3.746-14.145-3.141-10.472-3.867-17.18-2.496-27.86L7.999 83.4c-.262-.394-.814-1.147-1.069-1.576C3.077 75.362.053 65.097-.003 55.528v-.062c.056-9.57 3.08-19.835 6.933-26.297.255-.429.807-1.182 1.069-1.576l21.299 14.41c-1.371-10.68-.645-17.39 2.496-27.862-.606-3.7-5.991-8.042-3.746-14.146 4.819 6.185 18.547 12.774 29.59 20.108 6.457 3.902 8.92 8.531 8.63 10.733-2.11 4.872-4.291 9.411-4.454 18.803 3.066 1.06 5.87 1.597 7.748 2.825.76.43 2 1.882 2.439 3.001l-.01.031.01.032ZM33.877 88.561c2.539-1.47 7.036-4.162 9.993-5.816.315.693.495 2.396-.234 3.332-2.036 2.912-5.92 6.68-7.068 8.601-.52 1.136-1.151 3.584-1.243 5.241 5.57-3.686 12.4-7.503 18.36-11.32 1.282-.774 3.615-2.1 3.83-3.855-.611-1.59-.746-1.949-.937-3.902 2.227-.696 3.502-.946 4.373-2.589-.871-1.646-2.146-1.896-4.373-2.593.19-1.948.326-2.307.938-3.897-.216-1.759-2.55-3.082-3.831-3.855-5.96-3.817-12.79-7.634-18.36-11.322.092 1.658.723 4.106 1.243 5.24 1.148 1.92 5.032 5.691 7.068 8.604.729.932.549 2.638.234 3.331-2.957-1.657-7.454-4.345-9.993-5.815-.722 3.205-1.165 6.656-1.133 10.307-.032 3.648.41 7.103 1.133 10.308Zm-1.328-33.054-.003-.01.003-.01-.014-.022.014-.025c-.871-1.699-2.15-1.956-4.376-2.674.13-2.019.276-2.93.938-4.572-.212-1.819-2.55-3.188-3.828-3.99L9.299 33.337c-.503 1.76-.457 3.272.109 4.535 1.144 1.984 3.785 6.47 5.825 9.48 1.208 1.63.46 3.174.23 3.445-2.956-1.714-7.535-4.493-10.081-6.013-.736 2.945-1.253 6.716-1.243 10.712-.01 3.996.507 7.768 1.243 10.712 2.546-1.52 7.125-4.302 10.08-6.012.23.271.979 1.815-.23 3.444-2.04 3.011-4.68 7.497-5.824 9.481-.566 1.263-.612 2.775-.109 4.534l15.983-10.867c1.279-.8 3.616-2.17 3.828-3.985-.662-1.647-.807-2.558-.938-4.577 2.227-.717 3.505-.975 4.376-2.673l-.014-.025.014-.02ZM56.577 30.13c.19-1.948.326-2.307.938-3.897-.216-1.759-2.55-3.082-3.831-3.856-5.96-3.817-12.79-7.634-18.36-11.324.092 1.661.723 4.11 1.243 5.245 1.148 1.917 5.032 5.688 7.068 8.601.729.932.549 2.64.234 3.332-2.957-1.657-7.454-4.345-9.993-5.815-.722 3.204-1.165 6.656-1.133 10.307-.032 3.648.41 7.103 1.133 10.307 2.539-1.47 7.036-4.158 9.993-5.815.315.693.495 2.396-.234 3.331-2.036 2.913-5.92 6.684-7.068 8.602-.52 1.136-1.151 3.584-1.243 5.241 5.57-3.687 12.4-7.504 18.36-11.32 1.282-.774 3.615-2.1 3.83-3.856-.611-1.59-.746-1.949-.937-3.9 2.227-.697 3.502-.947 4.373-2.59-.871-1.647-2.146-1.896-4.373-2.593Zm4.607 25.336c-.368-1.277-1.948-2.05-4.533-2.625.468-1.112 1.477-2.18 1.215-6.666l-2.592 1.886-12.181 7.405.492.031-.492.032 12.18 7.405 2.593 1.886c.262-4.486-.747-5.559-1.215-6.667 2.585-.573 4.165-1.347 4.533-2.624l-.018-.032.018-.03Z"
          clip-rule="evenodd"/>
</svg>
