<svg xmlns="http://www.w3.org/2000/svg" width="16" height="16" fill="none">
    <path fill="#6E6E6E" fill-rule="evenodd"
          d="M16 13.714V8.103c0-.994-.434-1.943-1.189-2.594L8.746.274a1.152 1.152 0 0 0-1.492 0L1.189 5.51A3.431 3.431 0 0 0 0 8.103v5.611A2.289 2.289 0 0 0 2.286 16h11.428A2.289 2.289 0 0 0 16 13.714Zm-2.286-5.611v5.611H11.43v-3.428A2.289 2.289 0 0 0 9.143 8H6.857a2.289 2.289 0 0 0-2.286 2.286v3.428H2.286V8.103c0-.332.145-.64.396-.857L8 2.65l5.318 4.595c.251.217.396.525.396.857Zm-4.571 2.183v3.428H6.857v-3.428h2.286Z"
          clip-rule="evenodd"/>
</svg>
