<svg xmlns="http://www.w3.org/2000/svg" width="70" height="70" fill="none">
    <path fill="#AE9675" fill-rule="evenodd"
          d="M68.057 70.002h-31.11a1.945 1.945 0 0 1-1.945-1.945V36.946c0-1.074.871-1.944 1.945-1.944h31.11c1.074 0 1.945.87 1.945 1.944v31.11a1.945 1.945 0 0 1-1.945 1.946ZM66.113 38.89H38.891v27.222h27.222V38.89Zm-21.388 3.888c1.073 0 1.944.87 1.944 1.945v3.888a1.945 1.945 0 0 1-3.889 0v-3.888c0-1.074.871-1.945 1.945-1.945Zm0 11.667c1.073 0 1.944.87 1.944 1.944v3.89a1.945 1.945 0 0 1-3.889 0v-3.89c0-1.073.871-1.944 1.945-1.944Zm7.778-11.667c1.073 0 1.944.87 1.944 1.945v3.888a1.945 1.945 0 0 1-3.889 0v-3.888c0-1.074.871-1.945 1.945-1.945Zm0 11.667c1.073 0 1.944.87 1.944 1.944v3.89a1.945 1.945 0 0 1-3.889 0v-3.89c0-1.073.871-1.944 1.945-1.944Zm7.776-11.667c1.074 0 1.944.87 1.944 1.945v3.888a1.944 1.944 0 1 1-3.888 0v-3.888c0-1.074.87-1.945 1.944-1.945Zm0 11.667c1.074 0 1.944.87 1.944 1.944v3.89a1.944 1.944 0 0 1-3.888 0v-3.89c0-1.073.87-1.944 1.944-1.944ZM56.39 15.558H42.78v4.222a5.838 5.838 0 0 1 3.739 6.81 5.837 5.837 0 0 1-6.343 4.486 5.832 5.832 0 0 1-5.174-5.796 1.943 1.943 0 1 1 3.889 0 1.945 1.945 0 1 0 1.944-1.944 1.944 1.944 0 0 1-1.944-1.945v-5.833H23.418L25.2 58.335h3.969c1.073 0 1.943.87 1.943 1.945v7.777c0 1.074-.87 1.944-1.944 1.944H1.946a1.944 1.944 0 0 1-1.944-1.944V60.28c0-1.074.871-1.945 1.944-1.945h3.969l1.782-42.777H1.946a1.945 1.945 0 0 1-1.265-3.42L14.291.47a1.949 1.949 0 0 1 1.801-.393l40.833 11.666a1.945 1.945 0 0 1-.535 3.814ZM3.891 62.223v3.889h23.333v-3.89H3.891Zm16.24-32.145-.605-14.52h-6.655l7.26 14.52Zm-8.778-8.858-.574 13.782h7.465L11.353 21.22Zm1.518 17.67 8.32 16.642-.693-16.641h-7.627Zm-2.415 3.868-.649 15.576h8.437l-7.788-15.576ZM16.03 4.104l-8.827 7.564h35.304L16.03 4.104Z"
          clip-rule="evenodd"/>
</svg>
