<svg xmlns="http://www.w3.org/2000/svg" width="16" height="16" fill="none"><g fill-rule="evenodd" clip-path="url(#a)" clip-rule="evenodd"><path fill="#fff" d="M8.625.969a7.031 7.031 0 1 1 0 14.062 7.031 7.031 0 0 1 0-14.062Z"/><path fill="#AE9675" d="M8 15.998a8.009 8.009 0 0 1-3.779-.949l-3.79.939a.353.353 0 0 1-.333-.095.348.348 0 0 1-.085-.337l1.018-3.631A7.99 7.99 0 0 1 0 7.998c0-4.41 3.589-8 8-8s8 3.589 8 8-3.589 8-8 8Zm4.144-6.141c-.052-.085-.189-.136-.394-.237-.205-.1-1.215-.59-1.403-.659-.189-.068-.326-.101-.463.101-.136.203-.53.66-.65.795-.119.135-.239.153-.445.052-.205-.103-.867-.317-1.651-1.007-.611-.537-1.023-1.203-1.143-1.405-.119-.204-.012-.312.09-.414.093-.092.206-.237.309-.355.103-.119.137-.204.205-.338.068-.137.034-.255-.017-.357-.051-.102-.462-1.099-.633-1.505-.167-.397-.336-.343-.462-.349a9.789 9.789 0 0 0-.394-.007.76.76 0 0 0-.548.254c-.189.203-.719.694-.719 1.692s.736 1.962.839 2.097c.103.135 1.448 2.184 3.508 3.062.49.209.873.334 1.171.428.492.154.94.132 1.294.08.394-.058 1.215-.49 1.386-.964.171-.473.171-.88.12-.964Z"/></g><defs><clipPath id="a"><path fill="#fff" d="M0 0h16v16H0z"/></clipPath></defs></svg>
