<svg xmlns="http://www.w3.org/2000/svg" width="17" height="16" fill="none">
    <path fill="#00305D" fill-rule="evenodd"
          d="M15.668 7.192c.445.446.445 1.17 0 1.616l-3.429 3.428a1.15 1.15 0 0 1-1.623 0 1.144 1.144 0 0 1 0-1.615l1.486-1.478H5.713A1.145 1.145 0 0 1 4.571 8c0-.63.514-1.143 1.142-1.143h6.389L10.616 5.38a1.144 1.144 0 0 1 0-1.616 1.15 1.15 0 0 1 1.623 0l3.429 3.429Zm-7.669-6.05c0 .632-.514 1.144-1.143 1.144H3.428c-.629 0-1.143.512-1.143 1.143v9.142c0 .631.514 1.143 1.143 1.143h3.428c.629 0 1.143.512 1.143 1.143S7.485 16 6.856 16H3.428a3.426 3.426 0 0 1-3.429-3.429V3.43A3.426 3.426 0 0 1 3.428 0h3.428C7.485 0 8 .512 8 1.143Z"
          clip-rule="evenodd"/>
</svg>
